<?xml version="1.0" encoding="utf-8"?>
<!-- Generator: Adobe Illustrator 19.0.0, SVG Export Plug-In . SVG Version: 6.00 Build 0)  -->
<svg version="1.1" id="Layer_1" xmlns="http://www.w3.org/2000/svg" xmlns:xlink="http://www.w3.org/1999/xlink" x="0px" y="0px"
	 viewBox="0 0 1058.2 820" style="enable-background:new 0 0 1058.2 820;" xml:space="preserve">
<style type="text/css">
	.st0{fill:#02254D;}
	.st1{fill:none;stroke:#214063;stroke-width:2;stroke-linecap:round;stroke-linejoin:round;stroke-miterlimit:22.9256;}
	.st2{opacity:0.15;fill:none;stroke:#6A7F96;stroke-width:2;stroke-miterlimit:10;enable-background:new    ;}
	.st3{fill:none;stroke:#415B79;stroke-width:2;stroke-linecap:round;stroke-miterlimit:10;}
	.st4{fill:#214063;}
	.st5{opacity:0.5;}
	.st6{opacity:0.5;fill:#214063;enable-background:new    ;}
	.st7{opacity:0.18;fill:none;stroke:#FFFFFF;stroke-width:3;stroke-linecap:round;stroke-miterlimit:10;enable-background:new    ;}
	
		.st8{opacity:0.18;fill:none;stroke:#FFFFFF;stroke-width:3;stroke-linecap:round;stroke-miterlimit:10;stroke-dasharray:8,10;enable-background:new    ;}
	.st9{opacity:0.18;}
	.st10{fill:#FFDECC;}
	.st11{fill:#7491A0;}
	.st12{fill:#F6DBC2;}
	.st13{fill:#F6D1AF;}
	.st14{fill:#EDEDED;}
	.st15{opacity:0.2;enable-background:new    ;}
	.st16{fill:#343434;}
	.st17{opacity:5.000000e-002;enable-background:new    ;}
	.st18{opacity:0.1;enable-background:new    ;}
	.st19{fill:#FFFFFF;}
	.st20{fill:#D1D3D4;}
	.st21{fill:#FAFAFA;}
	.st22{fill:none;}
	.st23{fill:#191B31;}
	.st24{fill:#858585;}
	.st25{fill:url(#XMLID_506_);}
	.st26{opacity:0.5;fill:#E6E7E8;enable-background:new    ;}
	.st27{opacity:0.3;fill:#FFFFFF;enable-background:new    ;}
	.st28{fill:#2F224A;}
	.st29{opacity:0.2;fill:url(#XMLID_507_);enable-background:new    ;}
	.st30{opacity:0.2;fill:#33314F;enable-background:new    ;}
	.st31{fill:#707412;}
	.st32{fill:#A7A9AC;}
	.st33{fill:#D9D5CE;}
	.st34{opacity:0.7;fill:#D9D5CE;enable-background:new    ;}
	.st35{fill:#323B3D;}
	.st36{fill:#3B4344;}
	.st37{opacity:0.8;fill:#3B4344;enable-background:new    ;}
	.st38{fill:#E8E4DF;}
	.st39{fill:#C6C6C5;}
	.st40{fill:#878787;}
	.st41{fill:#001B31;}
	.st42{fill:#EAEAEA;}
	.st43{fill:#8E8E8E;}
	.st44{fill:#B1B1B1;}
	.st45{opacity:0.2;fill:#FFFFFF;enable-background:new    ;}
	.st46{fill:url(#XMLID_508_);}
	.st47{opacity:0.2;fill:url(#XMLID_511_);enable-background:new    ;}
	.st48{fill:#008FFF;}
	.st49{fill:#3F0101;}
	.st50{fill:#003D6E;}
	.st51{opacity:0.4;fill:#00AEFF;enable-background:new    ;}
	.st52{opacity:0.4;fill:#BCBCBC;enable-background:new    ;}
	.st53{opacity:0.4;fill:#FF9F9F;enable-background:new    ;}
	.st54{fill:#FFFFFB;}
	.st55{fill:#84BDF1;}
	.st56{opacity:0.26;fill:#33C7CA;enable-background:new    ;}
	.st57{opacity:0.58;fill:#FFFFFB;enable-background:new    ;}
	.st58{fill:#9EC700;}
	.st59{fill:#695CA2;}
	.st60{fill:#7C5CA2;}
	.st61{opacity:0.48;}
	.st62{fill:#FEA311;}
	.st63{fill:#FFCA00;}



    

	#XMLID_305_{
	animation: XMLID_305_-anim 16s infinite;
	animation-timing-function: cubic-bezier(0, 0, 0, 0);
	stroke-dasharray: 10;
    
}
@keyframes XMLID_305_-anim{
	0%{
		stroke-dashoffset: 300;
	}
	
	100%{
		stroke-dashoffset: 0;
	}
	
}
	#lines{
	animation: lines-anim 16s infinite;
	animation-timing-function: cubic-bezier(0, 0, 0, 0);
	stroke-dasharray: 10;
    
}
@keyframes lines-anim{
	0%{
		stroke-dashoffset: 300;
	}
	
	100%{
		stroke-dashoffset: 0;
	}
	
}






	#mobile-1{
		animation: mobile-1-anim 16s infinite;
	}
	@keyframes mobile-1-anim{
	0%{
		opacity:0;
	}
	5%, 33%{
		opacity:1;
	}
	34%, 100%{
		opacity:0;
	}	
}

#laptop-2{
		animation: laptop-2-anim 16s infinite;
	}
		@keyframes laptop-2-anim{
	0%{
		opacity:0;
	}
	5%, 16.5%{
		opacity:1;
	}
	17%, 50%{
		opacity:0;
	}
	51%, 66%{
		opacity:1;
	}
	67%, 100%{
		opacity:0;
	}	
}
#lcd-2{
		animation: lcd-2-anim 16s infinite;
	}
		@keyframes lcd-2-anim{
	0%, 16.5%{
		opacity:0;
	}
	17%, 33%{
		opacity:1;
	}
	34%, 66%{
		opacity:0;
	}
	66.5%, 86%{
		opacity:1;
	}	
	86.5%, 100%{
		opacity:0;
	}
}


#folder-1{
	animation: folder-1-anim 16s infinite;
	animation-timing-function: cubic-bezier(0.85, -0.01, 0.35, 0.96);;
}
@keyframes folder-1-anim{
	0%, 5%{
		transform: translate(0px, 0px);
		opacity:0;
	}
	5.5%{
		transform: translate(0px, 0px);
		opacity:1;
	}
	16.5%{
		transform: translate(600px, 150px);
		opacity:1;
	}
	17%, 100%{
		transform: translate(600px, 150px);
		opacity:0;
	}	
}
#file-1{
	animation: file-1-anim 16s infinite;
	animation-timing-function: cubic-bezier(0.85, -0.01, 0.35, 0.96);
}
@keyframes file-1-anim{
	0%, 17%{
		transform: translate(0px, 0px);
		opacity:0;
	}
	17.5%{
		transform: translate(0px, 0px);
		opacity:1;
	}
	33%{
		transform: translate(600px, 150px);
		opacity:1;
	}
	34%, 100%{
		transform: translate(600px, 150px);
		opacity:0;
	}	
}










#lcd-1{
		animation: lcd-1-anim 16s infinite;
	}
@keyframes lcd-1-anim{
	0%, 33%{
		opacity:0;
	}
	34%, 66%{
		opacity:1;
	}
	67%, 100%{
		opacity:0;
	}	
}

#mobile-2{
		animation: mobile-2-anim 16s infinite;
	}
@keyframes mobile-2-anim{
	0%, 33%{
		opacity:0;
	}
	33.5%, 50%{
		opacity:1;
	}
	51%, 86%{
		opacity:0;
	}
	86.5%, 95%{
		opacity:1;
	}	
	96%, 100%{
		opacity:0;
	}
}





#img-1{
	animation: img-1-anim 16s infinite;
	animation-timing-function: cubic-bezier(0.85, -0.01, 0.35, 0.96);
}
@keyframes img-1-anim{
	0%, 33%{
		transform: translate(0px, 0px);
		opacity:0;
	}
	33.5%{
		transform: translate(0px, 0px);
		opacity:1;
	}
	50%{
		transform: translate(600px, 150px);
		opacity:1;
	}
	51%, 100%{
		transform: translate(600px, 150px);
		opacity:0;
	}	
}
#video-1{
	animation: video-1-anim 16s infinite;
	animation-timing-function: cubic-bezier(0.85, -0.01, 0.35, 0.96);
}
@keyframes video-1-anim{
	0%, 50%{
		transform: translate(0px, 0px);
		opacity:0;
	}
	50.5%{
		transform: translate(0px, 0px);
		opacity:1;
	}
	66%{
		transform: translate(600px, 150px);
		opacity:1;
	}
	67%, 100%{
		transform: translate(600px, 150px);
		opacity:0;
	}	
}





#laptop-1{
		animation: laptop-1-anim 16s infinite;
	}
@keyframes laptop-1-anim{
	0%, 66%{
		opacity:0;
	}
	66.5%, 95%{
		opacity:1;
	}
	96%, 100%{
		opacity:0;
	}	
}



#folder-2{
	animation: folder-2-anim 16s infinite;
	animation-timing-function: cubic-bezier(0.85, -0.01, 0.35, 0.96);;
}
@keyframes folder-2-anim{
	0%, 66%{
		transform: translate(0px, 0px);
		opacity:0;
	}
	66.5%{
		transform: translate(0px, 0px);
		opacity:1;
	}
	86.5%{
		transform: translate(600px, 150px);
		opacity:1;
	}
	87%, 100%{
		transform: translate(600px, 150px);
		opacity:0;
	}	
}

#video-2{
	animation: video-2-anim 16s infinite;
	animation-timing-function: cubic-bezier(0.85, -0.01, 0.35, 0.96);
}
@keyframes video-2-anim{
	0%, 85%{
		transform: translate(0px, 0px);
		opacity:0;
	}
	85.5%{
		transform: translate(0px, 0px);
		opacity:1;
	}
	95%{
		transform: translate(600px, 150px);
		opacity:1;
	}
	96%, 100%{
		transform: translate(600px, 150px);
		opacity:0;
	}	
}




</style>
<path id="bg" class="st0" d="M915.8,806H120.4c-19.2,0-34.7-15.6-34.7-34.7v-694c0-19.2,15.6-34.7,34.7-34.7h795.4
	c19.2,0,34.7,15.6,34.7,34.7v694C950.5,790.5,934.9,806,915.8,806z"/>
<g id="people-lines">
	<g id="lines">
		<path id="XMLID_279_" class="st7" d="M462,110.8c-80-48.8-207.8-44-283.9,42.5"/>
		<path id="XMLID_252_" class="st7" d="M753.6,343.6c-80-48.8-207.8-44-283.9,42.5"/>
		<path id="XMLID_251_" class="st7" d="M799.2,333.8c16.1-126.8-189.4-250-276.5-193.1"/>
		<path id="XMLID_250_" class="st7" d="M804.4,377.6c97-37.5,128.7-232.5,68.6-260.1"/>
		<path id="XMLID_249_" class="st8" d="M549.6,636.4c-96.7-41.9-118.7-119.4-102.3-160.6"/>
		<path id="XMLID_196_" class="st7" d="M573.2,689.9c-73.6,67.5-217.4,119-336.3,52"/>
		<path id="XMLID_195_" class="st7" d="M394.2,456.5c-152.7-10-218.9-73-247.2-196.5"/>
		<path id="XMLID_194_" class="st7" d="M205.4,667c-150.9-134.7-105.4-333.3-74-408"/>
		<path id="XMLID_193_" class="st7" d="M861.6,651.8C746.6,500.7,639.4,475.3,480.7,460.3"/>
	</g>
	<g id="people">
		<g class="st9">
			<path id="XMLID_278_" class="st10" d="M142.6,212c-17.2,7.5-22.3,11.5-24.4,13.3c-3.1,2.8-4.9,13.1-6.7,21.9h38.8h38.8
				c-1.8-8.8-3.6-19.1-6.7-21.9c-2-1.8-7-5.7-24.2-13.2L142.6,212z"/>
			<path id="XMLID_277_" class="st11" d="M142.5,212c-17.2,7.5-22.3,11.5-24.4,13.3c-3.1,2.8-4.9,13.1-6.7,21.9h38.8h38.8
				c-1.8-8.8-3.6-19.1-6.7-21.9c-2-1.8-7-5.7-24.2-13.2L142.5,212z"/>
			<path id="XMLID_276_" class="st12" d="M142,197v12.7v6.3c4.6,5.4,12.1,5.6,16.7,0v-6.3V197C158.6,186.7,142,186.7,142,197z"/>
			<path id="XMLID_275_" class="st13" d="M132.9,185c1.5-0.5,3.3,1.2,4.2,3.7c0.8,2.5,0.3,5-1.1,5.5c-1.5,0.5-3.3-1.2-4.2-3.7
				C130.9,187.9,131.5,185.5,132.9,185z"/>
			<path id="XMLID_274_" class="st13" d="M167.6,185c-1.5-0.5-3.3,1.2-4.2,3.7c-0.8,2.5-0.3,5,1.1,5.5c1.5,0.5,3.3-1.2,4.2-3.7
				C169.6,187.9,169.1,185.5,167.6,185z"/>
			<path id="XMLID_273_" class="st14" d="M146.7,224l2,3.1c1,0,2.1,0,3.1,0l2-3.1l-3.5-3.9L146.7,224z"/>
			<polygon id="XMLID_272_" class="st14" points="148.7,227.1 145.9,247.2 154.7,247.2 151.9,227.1 			"/>
			<path id="XMLID_271_" class="st14" d="M142,209.7l-0.7,2.8l2,14.8l7.1-7.2L142,209.7z"/>
			<path id="XMLID_270_" class="st15" d="M142,206.2v0.6c0,0,4.3,5,8.3,5.2s8.4-4.9,8.4-4.9v-0.9"/>
			<g>
				<path id="XMLID_269_" class="st12" d="M150.3,162.8c-25.6,0-15.8,35.1-14.1,37.8c1.8,3,10,9.5,14.1,9.5c4.1,0,12.3-6.5,14.1-9.5
					C166.1,197.9,176,162.8,150.3,162.8z"/>
				<path class="st16" d="M139.1,163.6c8.7-6.8,25.7-5.8,29.8-0.2c-1.6,5.7-0.4,21-1.6,29.1c0,0,0,0,0,0c0,0.1,0,0.2-0.1,0.2
					c0,0.1-0.2,0.2-0.2,0.3c0,0.1-0.4,0-0.5-0.1c0,0-0.1-0.1-0.1-0.1c0-0.7,0-2.1,0-2.2c0.1-1.1,0.3-2.2,0.5-3.3
					c-0.8-5.1-3.2-6.2-4.5-12.4c-0.3-0.4-0.6-0.8-0.8-1.2c-0.4-0.5-0.7-0.9-1.1-1.3c-0.2-0.1-0.4-0.3-0.6-0.4
					c-4.7-1.7-4.5-0.4-8.9,1.4c-1.7,0.7-6.4,2-8.3,1.9c-0.8-0.1-3.5-0.3-3.6-1c-3.5,5.4-3.8,9.2-4.9,13.9c0.1,0.8,0.3,1.6,0.4,2.4
					c0,0,0,1.4,0,2.2c0,0,0,0.1-0.1,0.1c-0.1,0-0.4,0.1-0.5,0.1c0,0-0.2-0.2-0.2-0.3c-0.1-0.3-0.1-0.6-0.1-0.9
					c-0.1-0.4-0.1-0.8-0.2-1.3C132.4,185.6,129.9,165.8,139.1,163.6z M152.3,170.3c0.1,0,0.3-0.1,0.4-0.1c-0.2,0.1-0.4,0.1-0.6,0.2
					C152.1,170.3,152.2,170.3,152.3,170.3z"/>
			</g>
			<path id="XMLID_266_" class="st14" d="M158.6,209.7l0.6,2.8l-1.9,15l-7-7.3L158.6,209.7z"/>
			<polyline id="XMLID_265_" class="st17" points="142,209.7 150.4,220.1 158.6,209.7 158.6,209.4 150.4,219.8 142,209.4 142,209.7 
							"/>
			<polygon id="XMLID_264_" class="st18" points="148.7,227.1 151.9,227.1 151.9,227.2 148.7,227.2 			"/>
		</g>
		<g class="st9">
			<path id="XMLID_263_" class="st16" d="M231.5,658.9c1.6-2.9,14-5.4,19.1,4.8c5.1,10.2,2.5,13.8,5.3,17.4
				c2.8,3.6-3.8,31.5-19.4,31.4c-16.7-0.1-20.4-26.8-17-32.2C222.8,675,219.9,658.9,231.5,658.9z"/>
			<path id="XMLID_262_" class="st11" d="M243.8,706.5c-0.1,0.2-14.1,0.4-14.2,0.7c-4.4,6.2-13.8,7.4-21.3,9.1
				c-7.5,1.7-7.8,11.2-7.8,17.5h72.9c0-6.3-0.1-15.8-7.8-17.5C257.9,714.5,247.9,713,243.8,706.5z"/>
			<path id="XMLID_261_" class="st19" d="M244.2,707.1v3.4l-3.6,23.2h-7.6l-3.5-22.9v-3.6l0,0c0.1-0.2,14.1-0.4,14.2-0.7
				C243.9,706.7,244,706.9,244.2,707.1z"/>
			<path id="XMLID_260_" class="st12" d="M229.6,691.6v12v5.9c3.7,7.5,10.2,7.7,14.6,0v-5.9v-12
				C244.2,681.9,229.6,681.9,229.6,691.6z"/>
			<path id="XMLID_259_" class="st12" d="M256.2,683.2c-1.5-0.7-3.5,1-4.6,3.6c-1.1,2.6-0.8,5.3,0.7,6s3.5-1,4.6-3.6
				C257.9,686.6,257.6,683.9,256.2,683.2z"/>
			<path id="XMLID_258_" class="st12" d="M217.6,683.2c1.5-0.7,3.5,1,4.6,3.6c1.1,2.6,0.8,5.3-0.7,6c-1.5,0.7-3.5-1-4.6-3.6
				C215.9,686.6,216.2,683.9,217.6,683.2z"/>
			<path id="XMLID_257_" class="st15" d="M229.6,700.5v0.5c0,0,4.6,4.6,7.2,4.6s7.4-4.6,7.4-4.6v-0.5L229.6,700.5L229.6,700.5z"/>
			<path id="XMLID_256_" class="st12" d="M236.9,704c-4.5,0-14.1-7.5-17.1-18.2c-3-10.8,2.6-26.3,17.1-26.3S257,675,254,685.8
				C251,696.5,241.4,704,236.9,704z"/>
			<path id="XMLID_255_" class="st16" d="M239.8,672.9c3.5,7.4,5,9.6,9.7,7.7c4.7-2,3.8,3.5,3,7.4c4.2-5.3,3.7-10.3,2.4-15.4
				c-1.4-5.6-8.6-14.1-15.3-14c-3.7-0.4-9.2,0.1-15.1,4.3c-10.3,7.4-6.8,24-4.1,26c-2.7-15.4,3.9-12.3,8.4-20.3
				C230.3,665,236,664.8,239.8,672.9z"/>
			<polygon id="XMLID_254_" class="st14" points="233.1,733.7 227,733.7 226.5,733.7 220.2,727.9 226.6,723.6 218.7,719.9 
				224,711.8 226,708.6 229.5,707 229.5,710.8 233.1,733.7 			"/>
			<polygon id="XMLID_253_" class="st14" points="247.1,723.4 253.5,727.7 247.1,733.7 246.8,733.7 240.6,733.7 240.6,733.7 
				244.2,710.5 244.2,706.8 248.5,708.7 250.4,711.9 255,719.7 			"/>
		</g>
		<g class="st9">
			<path id="XMLID_248_" class="st10" d="M572.1,643.7c-17.2,7.5-22.3,11.5-24.4,13.3c-3.1,2.8-4.9,13.1-6.7,21.9h38.8h38.8
				c-1.8-8.8-3.6-19.1-6.7-21.9c-2-1.8-7-5.7-24.2-13.2L572.1,643.7z"/>
			<path id="XMLID_247_" class="st11" d="M572.1,643.7c-17.2,7.5-22.3,11.5-24.4,13.3c-3.1,2.8-4.9,13.1-6.7,21.9h38.8h38.8
				c-1.8-8.8-3.6-19.1-6.7-21.9c-2-1.8-7-5.7-24.2-13.2L572.1,643.7z"/>
			<path id="XMLID_246_" class="st12" d="M571.6,628.7v12.7v6.3c4.6,5.4,12.1,5.6,16.7,0v-6.3v-12.7
				C588.2,618.4,571.6,618.4,571.6,628.7z"/>
			<path id="XMLID_245_" class="st13" d="M562.5,616.8c1.5-0.5,3.3,1.2,4.2,3.7c0.8,2.5,0.3,5-1.1,5.5s-3.3-1.2-4.2-3.7
				C560.5,619.7,561.1,617.2,562.5,616.8z"/>
			<path id="XMLID_244_" class="st13" d="M597.2,616.8c-1.5-0.5-3.3,1.2-4.2,3.7c-0.8,2.5-0.3,5,1.1,5.5c1.5,0.5,3.3-1.2,4.2-3.7
				C599.2,619.7,598.7,617.2,597.2,616.8z"/>
			<path id="XMLID_243_" class="st14" d="M576.3,655.8l2,3.1c1,0,2.1,0,3.1,0l2-3.1l-3.5-3.9L576.3,655.8z"/>
			<polygon id="XMLID_242_" class="st14" points="578.3,658.9 575.5,679 584.3,679 581.5,658.9 			"/>
			<path id="XMLID_241_" class="st14" d="M571.6,641.5l-0.7,2.8l2,14.8l7.1-7.2L571.6,641.5z"/>
			<path id="XMLID_240_" class="st15" d="M571.6,637.9v0.6c0,0,4.3,5,8.3,5.2c4.1,0.2,8.4-4.9,8.4-4.9V638"/>
			<g>
				<path id="XMLID_239_" class="st12" d="M579.9,594.6c-25.6,0-15.8,35.1-14.1,37.8c1.8,3,10,9.5,14.1,9.5s12.3-6.5,14.1-9.5
					C595.7,629.7,605.5,594.6,579.9,594.6z"/>
				<path class="st16" d="M568.7,595.4c8.7-6.8,25.7-5.8,29.8-0.2c-1.6,5.7-0.4,21-1.6,29.1c0,0,0,0,0,0c0,0.1,0,0.2-0.1,0.2
					c0,0.1-0.2,0.2-0.2,0.3c0,0.1-0.4,0-0.5-0.1c0,0-0.1-0.1-0.1-0.1c0-0.7,0-2.1,0-2.2c0.1-1.1,0.3-2.2,0.5-3.3
					c-0.8-5.1-3.2-6.2-4.5-12.4c-0.3-0.4-0.6-0.8-0.8-1.2c-0.4-0.5-0.7-0.9-1.1-1.3c-0.2-0.1-0.4-0.3-0.6-0.4
					c-4.7-1.7-4.5-0.4-8.9,1.4c-1.7,0.7-6.4,2-8.3,1.9c-0.8-0.1-3.5-0.3-3.6-1c-3.5,5.4-3.8,9.2-4.9,13.9c0.1,0.8,0.3,1.6,0.4,2.4
					c0,0,0,1.4,0,2.2c0,0,0,0.1-0.1,0.1c-0.1,0-0.4,0.1-0.5,0.1c0,0-0.2-0.2-0.2-0.3c-0.1-0.3-0.1-0.6-0.1-0.9
					c-0.1-0.4-0.1-0.8-0.2-1.3C561.9,617.4,559.5,597.5,568.7,595.4z M581.9,602.1c0.1,0,0.3-0.1,0.4-0.1c-0.2,0.1-0.4,0.1-0.6,0.2
					C581.7,602.1,581.8,602.1,581.9,602.1z"/>
			</g>
			<path id="XMLID_236_" class="st14" d="M588.2,641.5l0.6,2.8l-1.9,15l-7-7.3L588.2,641.5z"/>
			<polyline id="XMLID_235_" class="st17" points="571.6,641.5 579.9,651.9 588.2,641.5 588.2,641.2 579.9,651.6 571.6,641.2 
				571.6,641.5 			"/>
			<polygon id="XMLID_234_" class="st18" points="578.3,658.9 581.5,658.9 581.5,659 578.3,659 			"/>
		</g>
		<g class="st9">
			<path id="XMLID_233_" class="st10" d="M770.3,393.2c-17.2,7.5-22.3,11.5-24.4,13.3c-3.1,2.8-4.9,13.1-6.7,21.9h38.8h38.8
				c-1.8-8.8-3.6-19.1-6.7-21.9c-2-1.8-7-5.7-24.2-13.2L770.3,393.2z"/>
			<path id="XMLID_232_" class="st11" d="M770.3,393.2c-17.2,7.5-22.3,11.5-24.4,13.3c-3.1,2.8-4.9,13.1-6.7,21.9h38.8h38.8
				c-1.8-8.8-3.6-19.1-6.7-21.9c-2-1.8-7-5.7-24.2-13.2L770.3,393.2z"/>
			<path id="XMLID_231_" class="st12" d="M769.8,378.2v12.7v6.3c4.6,5.4,12.1,5.6,16.7,0v-6.3v-12.7
				C786.4,367.9,769.8,367.9,769.8,378.2z"/>
			<path id="XMLID_230_" class="st13" d="M760.7,366.2c1.5-0.5,3.3,1.2,4.2,3.7c0.8,2.5,0.3,5-1.1,5.5s-3.3-1.2-4.2-3.7
				C758.7,369.2,759.2,366.7,760.7,366.2z"/>
			<path id="XMLID_229_" class="st13" d="M795.4,366.2c-1.5-0.5-3.3,1.2-4.2,3.7c-0.8,2.5-0.3,5,1.1,5.5c1.5,0.5,3.3-1.2,4.2-3.7
				C797.4,369.2,796.9,366.7,795.4,366.2z"/>
			<path id="XMLID_228_" class="st14" d="M774.5,405.2l2,3.1c1,0,2.1,0,3.1,0l2-3.1l-3.5-3.9L774.5,405.2z"/>
			<polygon id="XMLID_227_" class="st14" points="776.5,408.3 773.6,428.4 782.5,428.4 779.7,408.3 			"/>
			<path id="XMLID_226_" class="st14" d="M769.8,390.9l-0.7,2.8l2,14.8l7.1-7.2L769.8,390.9z"/>
			<path id="XMLID_225_" class="st15" d="M769.8,387.4v0.6c0,0,4.3,5,8.3,5.2c4.1,0.2,8.4-4.9,8.4-4.9v-0.9"/>
			<g>
				<path id="XMLID_224_" class="st12" d="M778.1,344c-25.6,0-15.8,35.1-14.1,37.8c1.8,3,10,9.5,14.1,9.5s12.3-6.5,14.1-9.5
					C793.9,379.1,803.8,344,778.1,344z"/>
				<path class="st16" d="M766.9,344.9c8.7-6.8,25.7-5.8,29.8-0.2c-1.6,5.7-0.4,21-1.6,29.1c0,0,0,0,0,0c0,0.1,0,0.2-0.1,0.2
					c0,0.1-0.2,0.2-0.2,0.3c0,0.1-0.4,0-0.5-0.1c0,0-0.1-0.1-0.1-0.1c0-0.7,0-2.1,0-2.2c0.1-1.1,0.3-2.2,0.5-3.3
					c-0.8-5.1-3.2-6.2-4.5-12.4c-0.3-0.4-0.6-0.8-0.8-1.2c-0.4-0.5-0.7-0.9-1.1-1.3c-0.2-0.1-0.4-0.3-0.6-0.4
					c-4.7-1.7-4.5-0.4-8.9,1.4c-1.7,0.7-6.4,2-8.3,1.9c-0.8-0.1-3.5-0.3-3.6-1c-3.5,5.4-3.8,9.2-4.9,13.9c0.1,0.8,0.3,1.6,0.4,2.4
					c0,0,0,1.4,0,2.2c0,0,0,0.1-0.1,0.1c-0.1,0-0.4,0.1-0.5,0.1c0,0-0.2-0.2-0.2-0.3c-0.1-0.3-0.1-0.6-0.1-0.9
					c-0.1-0.4-0.1-0.8-0.2-1.3C760.2,366.8,757.7,347,766.9,344.9z M780,351.5c0.1,0,0.3-0.1,0.4-0.1c-0.2,0.1-0.4,0.1-0.6,0.2
					C779.9,351.6,780,351.6,780,351.5z"/>
			</g>
			<path id="XMLID_221_" class="st14" d="M786.4,390.9l0.6,2.8l-1.9,15l-7-7.3L786.4,390.9z"/>
			<polyline id="XMLID_220_" class="st17" points="769.8,390.9 778.1,401.3 786.4,390.9 786.4,390.7 778.1,401.1 769.8,390.7 
				769.8,390.9 			"/>
			<polygon id="XMLID_219_" class="st18" points="776.5,408.3 779.7,408.3 779.7,408.4 776.5,408.4 			"/>
		</g>
		<g class="st9">
			<path id="XMLID_218_" class="st16" d="M868.5,661.9c1.6-2.9,14-5.4,19.1,4.8c5.1,10.2,2.5,13.8,5.3,17.4
				c2.8,3.6-3.8,31.5-19.4,31.4c-16.7-0.1-20.4-26.8-17-32.2C859.8,678,856.8,661.9,868.5,661.9z"/>
			<path id="XMLID_217_" class="st11" d="M880.8,709.4c-0.1,0.2-14.1,0.4-14.2,0.7c-4.4,6.2-13.8,7.4-21.3,9.1
				c-7.5,1.7-7.8,11.2-7.8,17.5h72.9c0-6.3-0.1-15.8-7.8-17.5C894.9,717.5,884.9,716,880.8,709.4z"/>
			<path id="XMLID_216_" class="st19" d="M881.2,710.1v3.4l-3.6,23.2h-7.6l-3.5-22.9v-3.6l0,0c0.1-0.2,14.1-0.4,14.2-0.7
				C880.9,709.7,881.1,709.9,881.2,710.1z"/>
			<path id="XMLID_215_" class="st12" d="M866.6,694.5v12v5.9c3.7,7.5,10.2,7.7,14.6,0v-5.9v-12
				C881.2,684.9,866.6,684.9,866.6,694.5z"/>
			<path id="XMLID_214_" class="st12" d="M893.2,686.2c-1.5-0.7-3.5,1-4.6,3.6c-1.1,2.6-0.8,5.3,0.7,6c1.5,0.7,3.5-1,4.6-3.6
				C894.9,689.5,894.6,686.8,893.2,686.2z"/>
			<path id="XMLID_213_" class="st12" d="M854.6,686.2c1.5-0.7,3.5,1,4.6,3.6c1.1,2.6,0.8,5.3-0.7,6s-3.5-1-4.6-3.6
				C852.9,689.5,853.2,686.8,854.6,686.2z"/>
			<path id="XMLID_212_" class="st15" d="M866.6,703.4v0.5c0,0,4.6,4.6,7.2,4.6c2.6,0,7.4-4.6,7.4-4.6v-0.5L866.6,703.4L866.6,703.4
				z"/>
			<path id="XMLID_211_" class="st12" d="M873.9,706.9c-4.5,0-14.1-7.5-17.1-18.2c-3-10.8,2.6-26.3,17.1-26.3s20.1,15.5,17.1,26.3
				C888,699.4,878.4,706.9,873.9,706.9z"/>
			<path id="XMLID_210_" class="st16" d="M876.9,675.8c3.5,7.4,5,9.6,9.7,7.7c4.7-2,3.8,3.5,3,7.4c4.2-5.3,3.7-10.3,2.4-15.4
				c-1.4-5.6-8.6-14.1-15.3-14c-3.7-0.4-9.2,0.1-15.1,4.3c-10.3,7.4-6.8,24-4.1,26c-2.7-15.4,3.9-12.3,8.4-20.3
				C867.3,668,873,667.8,876.9,675.8z"/>
			<polygon id="XMLID_209_" class="st14" points="870.1,736.7 864,736.7 863.5,736.7 857.2,730.9 863.7,726.6 855.7,722.9 
				861,714.7 863,711.6 866.5,710 866.5,713.7 870.1,736.7 			"/>
			<polygon id="XMLID_208_" class="st14" points="884.1,726.3 890.5,730.6 884.2,736.7 883.8,736.7 877.6,736.7 877.7,736.7 
				881.2,713.5 881.2,709.8 885.5,711.7 887.4,714.9 892,722.6 			"/>
		</g>
		<g class="st9">
			<path id="XMLID_207_" class="st16" d="M838.8,77.9c1.6-2.9,14-5.4,19.1,4.8c5.1,10.2,2.5,13.8,5.3,17.4
				c2.8,3.6-3.8,31.5-19.4,31.4c-16.7-0.1-20.4-26.8-17-32.2C830.1,94,827.2,77.9,838.8,77.9z"/>
			<path id="XMLID_206_" class="st11" d="M851.1,125.5c-0.1,0.2-14.1,0.4-14.2,0.7c-4.4,6.2-13.8,7.4-21.3,9.1
				c-7.5,1.7-7.8,11.2-7.8,17.5h72.9c0-6.3-0.1-15.8-7.8-17.5C865.3,133.5,855.3,132,851.1,125.5z"/>
			<path id="XMLID_205_" class="st19" d="M851.5,126.1v3.4l-3.6,23.2h-7.6l-3.5-22.9v-3.6l0,0c0.1-0.2,14.1-0.4,14.2-0.7
				C851.2,125.7,851.4,125.9,851.5,126.1z"/>
			<path id="XMLID_204_" class="st12" d="M836.9,110.6v12v5.9c3.7,7.5,10.2,7.7,14.6,0v-5.9v-12
				C851.5,100.9,836.9,100.9,836.9,110.6z"/>
			<path id="XMLID_203_" class="st12" d="M863.5,102.2c-1.5-0.7-3.5,1-4.6,3.6c-1.1,2.6-0.8,5.3,0.7,6c1.5,0.7,3.5-1,4.6-3.6
				C865.2,105.5,865,102.9,863.5,102.2z"/>
			<path id="XMLID_202_" class="st12" d="M825,102.2c1.5-0.7,3.5,1,4.6,3.6c1.1,2.6,0.8,5.3-0.7,6c-1.5,0.7-3.5-1-4.6-3.6
				C823.2,105.5,823.5,102.9,825,102.2z"/>
			<path id="XMLID_201_" class="st15" d="M836.9,119.5v0.5c0,0,4.6,4.6,7.2,4.6c2.6,0,7.4-4.6,7.4-4.6v-0.5L836.9,119.5L836.9,119.5
				z"/>
			<path id="XMLID_200_" class="st12" d="M844.2,122.9c-4.5,0-14.1-7.5-17.1-18.2c-3-10.8,2.6-26.3,17.1-26.3
				c14.4,0,20.1,15.5,17.1,26.3C858.4,115.5,848.8,122.9,844.2,122.9z"/>
			<path id="XMLID_199_" class="st16" d="M847.2,91.8c3.5,7.4,5,9.6,9.7,7.7c4.7-2,3.8,3.5,3,7.4c4.2-5.3,3.7-10.3,2.4-15.4
				c-1.4-5.6-8.6-14.1-15.3-14c-3.7-0.4-9.2,0.1-15.1,4.3c-10.3,7.4-6.8,24-4.1,26c-2.7-15.4,3.9-12.3,8.4-20.3
				C837.6,84,843.3,83.8,847.2,91.8z"/>
			<polygon id="XMLID_198_" class="st14" points="840.5,152.7 834.3,152.7 833.9,152.7 827.5,146.9 834,142.6 826.1,138.9 
				831.3,130.8 833.3,127.6 836.9,126 836.9,129.8 840.4,152.7 			"/>
			<polygon id="XMLID_197_" class="st14" points="854.4,142.3 860.9,146.7 854.5,152.7 854.1,152.7 847.9,152.7 848,152.7 
				851.5,129.5 851.5,125.8 855.8,127.7 857.7,130.9 862.3,138.6 			"/>
		</g>
		<g class="st9">
			<path id="XMLID_192_" class="st10" d="M478.4,147.9c-17.2,7.5-22.3,11.5-24.4,13.3c-3.1,2.8-4.9,13.1-6.7,21.9h38.8H525
				c-1.8-8.8-3.6-19.1-6.7-21.9c-2-1.8-7-5.7-24.2-13.2L478.4,147.9z"/>
			<path id="XMLID_191_" class="st11" d="M478.4,147.9c-17.2,7.5-22.3,11.5-24.4,13.3c-3.1,2.8-4.9,13.1-6.7,21.9h38.8H525
				c-1.8-8.8-3.6-19.1-6.7-21.9c-2-1.8-7-5.7-24.2-13.2L478.4,147.9z"/>
			<path id="XMLID_190_" class="st12" d="M477.8,132.9v12.7v6.3c4.6,5.4,12.1,5.6,16.7,0v-6.3v-12.7
				C494.5,122.6,477.8,122.6,477.8,132.9z"/>
			<path id="XMLID_189_" class="st13" d="M468.8,121c1.5-0.5,3.3,1.2,4.2,3.7c0.8,2.5,0.3,5-1.1,5.5c-1.5,0.5-3.3-1.2-4.2-3.7
				C466.8,123.9,467.3,121.4,468.8,121z"/>
			<path id="XMLID_188_" class="st13" d="M503.5,121c-1.5-0.5-3.3,1.2-4.2,3.7c-0.8,2.5-0.3,5,1.1,5.5c1.5,0.5,3.3-1.2,4.2-3.7
				C505.5,123.9,505,121.4,503.5,121z"/>
			<path id="XMLID_187_" class="st14" d="M482.6,160l2,3.1c1,0,2.1,0,3.1,0l2-3.1l-3.5-3.9L482.6,160z"/>
			<polygon id="XMLID_186_" class="st14" points="484.6,163.1 481.8,183.2 490.6,183.2 487.8,163.1 			"/>
			<path id="XMLID_185_" class="st14" d="M477.8,145.7l-0.7,2.8l2,14.8l7.1-7.2L477.8,145.7z"/>
			<path id="XMLID_184_" class="st15" d="M477.8,142.1v0.6c0,0,4.3,5,8.3,5.2s8.4-4.9,8.4-4.9v-0.9"/>
			<g>
				<path id="XMLID_183_" class="st12" d="M486.2,98.8c-25.6,0-15.8,35.1-14.1,37.8c1.8,3,10,9.5,14.1,9.5c4.1,0,12.3-6.5,14.1-9.5
					C502,133.9,511.8,98.8,486.2,98.8z"/>
				<path class="st16" d="M475,99.6c8.6-6.8,25.7-5.8,29.8-0.2c-1.6,5.7-0.4,21-1.6,29.1c0,0,0,0,0,0c0,0.1,0,0.2-0.1,0.2
					c0,0.1-0.2,0.2-0.2,0.3c0,0.1-0.4,0-0.5-0.1c0,0-0.1-0.1-0.1-0.1c0-0.7,0-2.1,0-2.2c0.1-1.1,0.3-2.2,0.5-3.3
					c-0.8-5.1-3.2-6.2-4.5-12.4c-0.3-0.4-0.6-0.8-0.8-1.2c-0.4-0.5-0.7-0.9-1.1-1.3c-0.2-0.1-0.4-0.3-0.6-0.4
					c-4.7-1.7-4.5-0.4-8.9,1.4c-1.7,0.7-6.4,2-8.3,1.9c-0.8-0.1-3.5-0.3-3.6-1c-3.5,5.4-3.8,9.2-4.9,13.9c0.1,0.8,0.3,1.6,0.4,2.4
					c0,0,0,1.4,0,2.2c0,0,0,0.1-0.1,0.1c-0.1,0-0.4,0.1-0.5,0.1c0,0-0.2-0.2-0.2-0.3c-0.1-0.3-0.1-0.6-0.1-0.9
					c-0.1-0.4-0.1-0.8-0.2-1.3C468.2,121.6,465.8,101.8,475,99.6z M488.1,106.3c0.1,0,0.3-0.1,0.4-0.1c-0.2,0.1-0.4,0.1-0.6,0.2
					C488,106.3,488.1,106.3,488.1,106.3z"/>
			</g>
			<path id="XMLID_180_" class="st14" d="M494.5,145.7l0.6,2.8l-1.9,15l-7-7.3L494.5,145.7z"/>
			<polyline id="XMLID_179_" class="st17" points="477.8,145.7 486.2,156.1 494.5,145.7 494.5,145.4 486.2,155.8 477.8,145.4 
				477.8,145.7 			"/>
			<polygon id="XMLID_178_" class="st18" points="484.6,163.1 487.8,163.1 487.8,163.2 484.6,163.2 			"/>
		</g>
		<g class="st9">
			<path id="XMLID_177_" class="st16" d="M440.2,393.3c1.6-2.9,14-5.4,19.1,4.8c5.1,10.2,2.5,13.8,5.3,17.4
				c2.8,3.6-3.8,31.5-19.4,31.4c-16.7-0.1-20.4-26.8-17-32.2C431.5,409.4,428.5,393.3,440.2,393.3z"/>
			<path id="XMLID_176_" class="st11" d="M452.5,440.9c-0.1,0.2-14.1,0.4-14.2,0.7c-4.4,6.2-13.8,7.4-21.3,9.1
				c-7.5,1.7-7.8,11.2-7.8,17.5h72.9c0-6.3-0.1-15.8-7.8-17.5C466.6,448.9,456.6,447.4,452.5,440.9z"/>
			<path id="XMLID_175_" class="st19" d="M452.9,441.5v3.4l-3.6,23.2h-7.6l-3.5-22.9v-3.6l0,0c0.1-0.2,14.1-0.4,14.2-0.7
				C452.6,441.1,452.7,441.3,452.9,441.5z"/>
			<path id="XMLID_174_" class="st12" d="M438.3,426v12v5.9c3.7,7.5,10.2,7.7,14.6,0v-5.9v-12C452.9,416.3,438.3,416.3,438.3,426z"
				/>
			<path id="XMLID_173_" class="st12" d="M464.8,417.6c-1.5-0.7-3.5,1-4.6,3.6c-1.1,2.6-0.8,5.3,0.7,6s3.5-1,4.6-3.6
				C466.6,420.9,466.3,418.3,464.8,417.6z"/>
			<path id="XMLID_172_" class="st12" d="M426.3,417.6c1.5-0.7,3.5,1,4.6,3.6c1.1,2.6,0.8,5.3-0.7,6s-3.5-1-4.6-3.6
				C424.6,420.9,424.9,418.3,426.3,417.6z"/>
			<path id="XMLID_171_" class="st15" d="M438.3,434.9v0.5c0,0,4.6,4.6,7.2,4.6s7.4-4.6,7.4-4.6v-0.5L438.3,434.9L438.3,434.9z"/>
			<path id="XMLID_170_" class="st12" d="M445.6,438.3c-4.5,0-14.1-7.5-17.1-18.2c-3-10.8,2.6-26.3,17.1-26.3
				c14.4,0,20.1,15.5,17.1,26.3C459.7,430.9,450.1,438.3,445.6,438.3z"/>
			<path id="XMLID_169_" class="st16" d="M448.5,407.2c3.5,7.4,5,9.6,9.7,7.7c4.7-2,3.8,3.5,3,7.4c4.2-5.3,3.7-10.3,2.4-15.4
				c-1.4-5.6-8.6-14.1-15.3-14c-3.7-0.4-9.2,0.1-15.1,4.3c-10.3,7.4-6.8,24-4.1,26c-2.7-15.4,3.9-12.3,8.4-20.3
				C439,399.4,444.7,399.2,448.5,407.2z"/>
			<polygon id="XMLID_168_" class="st14" points="441.8,468.1 435.7,468.1 435.2,468.1 428.9,462.3 435.3,458 427.4,454.3 
				432.7,446.2 434.7,443 438.2,441.4 438.2,445.2 441.8,468.1 			"/>
			<polygon id="XMLID_167_" class="st14" points="455.7,457.7 462.2,462.1 455.8,468.1 455.4,468.1 449.3,468.1 449.3,468.1 
				452.9,444.9 452.9,441.2 457.2,443.1 459.1,446.3 463.6,454 			"/>
		</g>
	</g>
</g>
<g id="mobile-1">
	<g id="XMLID_378_">
		<path id="XMLID_105_" class="st20" d="M97.3,255.7c-0.3,0.7,0,1.5,0.7,1.8l6.7,2.8c0.7,0.3,1.5,0,1.8-0.7l8.3-21
			c0.3-0.7,0-1.5-0.7-1.8l-6.7-2.8c-0.7-0.3-1.5,0-1.8,0.7L97.3,255.7z"/>
		<path id="XMLID_104_" class="st20" d="M86.2,282.8c-0.3,0.7,0,1.5,0.7,1.8l6.7,2.8c0.7,0.3,1.5,0,1.8-0.7l8.4-21
			c0.3-0.7,0-1.5-0.7-1.8l-6.7-2.8c-0.7-0.3-1.5,0-1.8,0.7L86.2,282.8z"/>
		<path id="XMLID_103_" class="st21" d="M31.7,421.2l85.8-210.7c1.8-4.4,6.5-7,10.4-5.9l111.9,31.4c1.1,0.3,2,0.9,2.7,1.6
			c0.2,0.2,0.4,0.4,0.6,0.7c0.1,0.2,0.2,0.3,0.4,0.5c0,0.1,0.1,0.1,0.1,0.2c0.1,0.2,0.2,0.5,0.4,0.8c0,0,0,0,0,0.1
			c0.1,0.2,0.2,0.5,0.2,0.7c0,0.1,0,0.2,0,0.2c0,0.2,0.1,0.4,0.1,0.7c0,0.1,0,0.2,0,0.2c0,0.3,0,0.6,0,0.9c0,0,0,0,0,0.1
			c0,0.3,0,0.6-0.1,0.9c0,0.1,0,0.2,0,0.3c0,0.2-0.1,0.5-0.2,0.7c0,0.1,0,0.2-0.1,0.3c-0.1,0.3-0.2,0.7-0.3,1l-85.8,210.7
			c-1.8,4.4-6.5,7-10.4,5.9L35.7,431.2c-0.2-0.1-0.5-0.1-0.7-0.2c0,0-0.1,0-0.2-0.1c-0.2-0.1-0.4-0.2-0.6-0.3h0
			c-0.2-0.1-0.4-0.2-0.5-0.3c0,0-0.1-0.1-0.1-0.1c-0.2-0.1-0.3-0.2-0.5-0.4l0,0c-0.2-0.1-0.3-0.3-0.4-0.5c0,0-0.1-0.1-0.1-0.1
			C30.9,427.1,30.5,424.1,31.7,421.2z"/>
		<path id="XMLID_102_" class="st22" d="M34.3,430.6c-0.2-0.1-0.4-0.2-0.5-0.3C34,430.3,34.1,430.4,34.3,430.6z"/>
		<path id="XMLID_101_" class="st22" d="M33.6,430.1c-0.2-0.1-0.3-0.2-0.5-0.4C33.3,429.9,33.5,430,33.6,430.1z"/>
		<path id="XMLID_100_" class="st22" d="M35.7,431.1c-0.2-0.1-0.5-0.1-0.7-0.2C35.3,431,35.5,431.1,35.7,431.1z"/>
		<path id="XMLID_99_" class="st22" d="M34.9,430.8c-0.2-0.1-0.4-0.2-0.6-0.3C34.5,430.7,34.7,430.8,34.9,430.8z"/>
		<path id="XMLID_98_" class="st22" d="M33.1,429.7c-0.2-0.1-0.3-0.3-0.4-0.5C32.8,429.4,33,429.6,33.1,429.7z"/>
		<path id="XMLID_97_" class="st23" d="M198.2,234.8c0-0.1,0.1-0.2,0.1-0.2C198.3,234.6,198.2,234.7,198.2,234.8z"/>
		<path id="XMLID_96_" class="st24" d="M200.5,234.3L200.5,234.3c0,0.1,0.1,0.2,0.1,0.2l0,0C200.6,234.5,200.5,234.4,200.5,234.3z"
			/>
		<path id="XMLID_95_" class="st21" d="M200.2,234C200.2,234,200.2,234.1,200.2,234c0.2,0.1,0.2,0.2,0.3,0.2c0,0,0,0,0,0
			c0,0.1,0.1,0.2,0.1,0.2c0,0,0,0,0,0.1c0,0.1,0,0.1,0,0.2c0,0,0,0,0,0.1c0,0.1,0,0.1,0,0.2c0,0,0,0,0,0.1c0,0.1,0,0.2-0.1,0.3
			c0,0.1-0.1,0.2-0.1,0.2c-0.2,0.3-0.6,0.6-1,0.7c0,0-0.1,0-0.1,0c-0.2,0-0.3,0-0.5,0c-0.6-0.2-0.9-0.7-0.8-1.3c0-0.1,0-0.2,0.1-0.2
			c0-0.1,0.1-0.2,0.1-0.2c0.1-0.1,0.2-0.2,0.3-0.3l0,0c0.3-0.2,0.6-0.3,1-0.3c0.1,0,0.2,0,0.2,0C200,234,200.1,234,200.2,234z"/>
		
			<linearGradient id="XMLID_506_" gradientUnits="userSpaceOnUse" x1="817.5845" y1="-153.2822" x2="974.2365" y2="83.4859" gradientTransform="matrix(-0.9817 -0.1903 -0.1903 0.9817 1011.0729 536.6474)">
			<stop  offset="0" style="stop-color:#F9ED32"/>
			<stop  offset="0.1559" style="stop-color:#F99C3C"/>
			<stop  offset="0.4462" style="stop-color:#ED1C24"/>
			<stop  offset="0.7419" style="stop-color:#92278F"/>
			<stop  offset="1" style="stop-color:#2B3990"/>
		</linearGradient>
		<path id="XMLID_94_" class="st25" d="M155.2,448.3c-1.7,4-6,6.5-9.6,5.5l-103.4-29l0,0c-0.3-0.1-0.5-0.2-0.8-0.3
			c-0.1,0-0.2-0.1-0.2-0.1c-0.2-0.1-0.4-0.2-0.5-0.3c-0.1,0-0.1-0.1-0.2-0.1c-0.2-0.2-0.4-0.3-0.6-0.5c0,0,0,0-0.1-0.1
			c-0.2-0.2-0.3-0.3-0.5-0.5c-1.5-1.8-1.9-4.6-0.7-7.3L119,217.9c0.2-0.5,0.5-1,0.7-1.4c0.2-0.4,0.6-0.8,0.9-1.2c0,0,0,0,0.1-0.1
			l0,0c0.2-0.2,0.4-0.4,0.5-0.6c0.1-0.1,0.2-0.2,0.2-0.2c0.1-0.1,0.2-0.2,0.3-0.3c0.1-0.1,0.2-0.1,0.2-0.2c0.1-0.1,0.2-0.2,0.3-0.2
			l0,0c0.1-0.1,0.2-0.2,0.4-0.2c0.1,0,0.2-0.1,0.3-0.2c0.1,0,0.2-0.1,0.3-0.2c0.1,0,0.2-0.1,0.4-0.2c0,0,0.1,0,0.2-0.1
			c0.2-0.1,0.3-0.2,0.5-0.2c0,0,0,0,0.1,0c0.2-0.1,0.4-0.1,0.6-0.2l0,0c1.2-0.3,2.4-0.3,3.5,0l0,0l22.7,6.4
			c-0.1,0.5-0.2,1.1-0.4,1.8c0,0.2-0.1,0.4-0.1,0.6c0,0,0,0.1,0,0.1c0,0.2-0.1,0.5-0.1,0.7c0,0,0,0.1,0,0.1c0,0.1,0,0.2,0,0.4
			c0,0.1,0,0.2,0,0.3c0,0,0,0,0,0.1c0,0.2,0,0.5-0.1,0.7c0,0,0,0.1,0,0.2c0,0.2,0,0.5,0,0.7c0,0,0,0,0,0.1c0,0.2,0,0.5,0,0.7
			c0,0,0,0.1,0,0.1c0,0.2,0,0.5,0,0.7c0,0,0,0.1,0,0.1c0,0.2,0,0.5,0,0.7v0c0,0.2,0.1,0.5,0.1,0.7c0,0,0,0.1,0,0.1
			c0,0.2,0.1,0.5,0.2,0.7c0,0,0,0.1,0,0.1c0.1,0.4,0.3,0.8,0.5,1.2c0,0,0,0.1,0,0.1c0.1,0.2,0.2,0.3,0.3,0.5c0,0,0,0,0.1,0.1
			c0.1,0.1,0.2,0.2,0.3,0.3c0,0,0,0,0.1,0.1c0.1,0.1,0.2,0.2,0.4,0.3c0,0,0,0,0.1,0c0.1,0.1,0.2,0.2,0.4,0.2c0,0,0.1,0,0.1,0
			c0.2,0.1,0.3,0.2,0.5,0.2l0,0l17.2,4.8l10,2.8l17.2,4.8l0,0c1.7,0.5,3.2-0.1,4.8-1.2c2.9-2.1,5.4-5.9,6.5-7.8l0,0l22.7,6.4l0,0
			l0,0c0.3,0.1,0.5,0.2,0.8,0.3c0.1,0,0.2,0.1,0.2,0.1c0.2,0.1,0.4,0.2,0.5,0.3c0.1,0,0.1,0.1,0.2,0.1c0.2,0.2,0.4,0.3,0.6,0.5
			c0,0,0,0,0,0.1c0.2,0.2,0.3,0.3,0.5,0.5c0,0.1,0.1,0.1,0.2,0.2c0.1,0.2,0.2,0.3,0.3,0.5c0,0.1,0.1,0.1,0.1,0.2
			c0.1,0.2,0.2,0.5,0.3,0.7c0,0,0,0,0,0.1c0.1,0.2,0.2,0.5,0.2,0.7c0,0.1,0,0.2,0,0.2c0,0.2,0.1,0.4,0.1,0.6c0,0.1,0,0.2,0,0.2
			c0,0.3,0,0.6,0,0.9v0c0,0.3,0,0.5-0.1,0.8c0,0.1,0,0.2,0,0.3c0,0.2-0.1,0.5-0.1,0.7c0,0.1,0,0.2-0.1,0.3c-0.1,0.3-0.2,0.6-0.3,0.9
			L155.2,448.3z"/>
		<path id="XMLID_93_" class="st26" d="M229.6,240.7l2.4,0.7l0,0l0,0c0.3,0.1,0.5,0.2,0.8,0.3c0.1,0,0.2,0.1,0.2,0.1
			c0.2,0.1,0.4,0.2,0.5,0.3c0.1,0,0.1,0.1,0.2,0.1c0.2,0.2,0.4,0.3,0.6,0.5c0,0,0,0,0,0.1c0.2,0.2,0.3,0.3,0.5,0.5
			c0,0.1,0.1,0.1,0.2,0.2c0.1,0.2,0.2,0.3,0.3,0.5c0,0.1,0.1,0.1,0.1,0.2c0.1,0.2,0.2,0.5,0.3,0.7c0,0,0,0,0,0.1
			c0.1,0.2,0.2,0.5,0.2,0.7c0,0.1,0,0.2,0,0.2c0,0.2,0.1,0.4,0.1,0.6c0,0.1,0,0.2,0,0.2c0,0.3,0,0.6,0,0.9v0c0,0.3,0,0.5-0.1,0.8
			c0,0.1,0,0.2,0,0.3c0,0.2-0.1,0.5-0.1,0.7c0,0.1,0,0.2-0.1,0.3c-0.1,0.3-0.2,0.6-0.3,0.9l-80.5,197.7c-1.7,4-6,6.5-9.6,5.5
			l-61.2-17.2L229.6,240.7z"/>
		<path id="XMLID_92_" class="st27" d="M87.4,295.4l31.6-77.6c0.2-0.5,0.5-1,0.7-1.4c0.2-0.4,0.6-0.8,0.9-1.2c0,0,0,0,0.1-0.1l0,0
			c0.2-0.2,0.4-0.4,0.5-0.6c0.1-0.1,0.2-0.2,0.2-0.2c0.1-0.1,0.2-0.2,0.3-0.3c0.1-0.1,0.2-0.1,0.2-0.2c0.1-0.1,0.2-0.2,0.3-0.2l0,0
			c0.1-0.1,0.2-0.2,0.4-0.2c0.1,0,0.2-0.1,0.3-0.2c0.1,0,0.2-0.1,0.3-0.2c0.1,0,0.2-0.1,0.4-0.2c0,0,0.1,0,0.2-0.1
			c0.2-0.1,0.3-0.2,0.5-0.2c0,0,0,0,0.1,0c0.2-0.1,0.4-0.1,0.6-0.2l0,0c1.2-0.3,2.4-0.3,3.5,0l0,0l22.7,6.4
			c-0.1,0.5-0.2,1.1-0.4,1.8c0,0.2-0.1,0.4-0.1,0.6c0,0,0,0.1,0,0.1c0,0.2-0.1,0.5-0.1,0.7c0,0,0,0.1,0,0.1c0,0.1,0,0.2,0,0.4
			c0,0.1,0,0.2,0,0.3c0,0,0,0,0,0.1c0,0.2,0,0.5-0.1,0.7c0,0,0,0.1,0,0.2c0,0.2,0,0.5,0,0.7c0,0,0,0,0,0.1c0,0.2,0,0.5,0,0.7
			c0,0,0,0.1,0,0.1c0,0.2,0,0.5,0,0.7c0,0,0,0.1,0,0.1c0,0.2,0,0.5,0,0.7v0c0,0.1,0,0.2,0,0.3L87.4,295.4z"/>
		<path id="XMLID_391_" class="st28" d="M38.5,423.3c0.2,0.2,0.4,0.4,0.6,0.6c0,0,0,0,0.1,0.1c0.2,0.2,0.4,0.4,0.7,0.6
			c0,0,0.1,0.1,0.2,0.1c0.2,0.2,0.5,0.2,0.7,0.4l0.2,0.1c0.3,0.1,0.6,0.2,0.9,0.3l0.1,0l103.3,29c0.2,0,0.4,0.1,0.6,0.1
			c4,0.8,8.5-1.9,10.3-6.2l80.5-197.7c0.1-0.3,0.2-0.6,0.3-1c0-0.1,0-0.2,0-0.2c0.1-0.3,0.1-0.6,0.2-0.8l0-0.3c0-0.3,0.1-0.6,0.1-1
			s0-0.7,0-1l0-0.2c0-0.3-0.1-0.6-0.1-0.8c0-0.1,0-0.2-0.1-0.3c-0.1-0.2-0.2-0.5-0.2-0.8l0-0.1c-0.1-0.3-0.2-0.6-0.4-0.9
			c0,0-0.1-0.1-0.1-0.2c-0.2-0.2-0.3-0.5-0.4-0.6c0-0.1-0.1-0.1-0.2-0.2c-0.2-0.2-0.4-0.4-0.6-0.6l0,0c-0.2-0.2-0.5-0.4-0.7-0.6
			c0,0-0.1-0.1-0.2-0.1c-0.2-0.2-0.5-0.2-0.7-0.4c-0.1,0-0.2-0.1-0.2-0.1c-0.3-0.1-0.6-0.2-0.9-0.3l-103.4-29c-1.3-0.4-2.6-0.4-4,0
			c-0.2,0-0.5,0.1-0.7,0.2l-0.1,0c-0.2,0.1-0.4,0.2-0.6,0.2l-0.2,0.1c-0.1,0.1-0.2,0.1-0.3,0.2l-0.2,0.1c-0.1,0-0.2,0.1-0.2,0.1
			c-0.1,0-0.2,0.1-0.2,0.2l-0.2,0.1c-0.1,0.1-0.2,0.1-0.3,0.2c-0.1,0-0.2,0.1-0.3,0.2l-0.2,0.1c-0.1,0.1-0.1,0.1-0.2,0.2
			c-0.1,0.1-0.2,0.2-0.2,0.2l-0.2,0.2c-0.1,0-0.1,0.1-0.2,0.2c-0.2,0.2-0.4,0.4-0.6,0.6l-0.1,0.1c-0.4,0.5-0.7,0.9-1,1.3
			c-0.3,0.5-0.6,1.1-0.8,1.6L37.5,415.1C36.3,418.1,36.7,421.3,38.5,423.3z M149.6,225.2v0.1c0,0.2,0,0.5,0,0.7v0.2
			c0,0.2,0,0.5,0.1,0.8c0,0.3,0.1,0.5,0.1,0.8l0,0.1c0,0.2,0.1,0.5,0.2,0.7l0,0.1c0.2,0.5,0.4,1,0.6,1.4l0,0.1
			c0.1,0.2,0.2,0.4,0.4,0.6l0.1,0.1c0.1,0.2,0.2,0.3,0.4,0.4l0.1,0.1c0.2,0.1,0.3,0.3,0.5,0.4l0.1,0.1c0.2,0.1,0.3,0.2,0.5,0.3
			l0.2,0.1c0.2,0.1,0.4,0.2,0.7,0.2l44.4,12.4c1.8,0.5,3.7,0,5.6-1.4c2.8-2,5.1-5.4,6.4-7.4l22,6.1c0.2,0.1,0.5,0.2,0.7,0.2l0.1,0.1
			c0.2,0.1,0.4,0.2,0.5,0.3l0.2,0.1c0.2,0.1,0.3,0.2,0.5,0.4l0,0c0.2,0.2,0.3,0.3,0.4,0.5l0.1,0.2c0.1,0.1,0.2,0.3,0.3,0.4l0.1,0.2
			c0.1,0.2,0.2,0.4,0.3,0.6c0.1,0.2,0.2,0.5,0.2,0.7l0,0.2c0,0.2,0,0.4,0.1,0.6l0,0.2c0,0.2,0,0.5,0,0.7c0,0.3,0,0.5-0.1,0.8l0,0.2
			c0,0.2-0.1,0.5-0.1,0.7l-0.1,0.2c-0.1,0.2-0.2,0.5-0.3,0.8L154.4,448c-1.4,3.6-5.2,5.8-8.4,4.9l-103.5-29
			c-0.2-0.1-0.4-0.1-0.6-0.2l-0.1,0c-0.2-0.1-0.4-0.2-0.5-0.3l-0.2-0.1c-0.2-0.1-0.3-0.2-0.5-0.4c-0.2-0.2-0.3-0.3-0.5-0.5
			c-1.3-1.6-1.6-4-0.6-6.3L120,218.3c0.2-0.4,0.4-0.9,0.7-1.3c0.2-0.4,0.5-0.7,0.8-1.1l0.2-0.2c0.2-0.2,0.3-0.3,0.4-0.4l0.9-0.7
			c0.1-0.1,0.1-0.1,0.2-0.2c0.1,0,0.1-0.1,0.2-0.1l0.2-0.1c0.1,0,0.1,0,0.2-0.1c0.1,0,0.1,0,0.2-0.1l0.2-0.1c0.1,0,0.2,0,0.2-0.1
			l0.1,0c0.2-0.1,0.3-0.2,0.5-0.2c0.2-0.1,0.5-0.2,0.6-0.2c1-0.2,2.1-0.3,3,0l21.7,6.1c-0.1,0.3-0.2,0.6-0.2,0.9
			c0,0.2-0.1,0.4-0.1,0.6l0,0.1c0,0.2-0.1,0.5-0.1,0.7l-0.1,0.9c0,0.2-0.1,0.5-0.1,0.7v0.2c0,0.3,0,0.5,0,0.8
			C149.5,224.8,149.5,225,149.6,225.2L149.6,225.2L149.6,225.2z"/>
		
			<linearGradient id="XMLID_507_" gradientUnits="userSpaceOnUse" x1="889.7344" y1="-39.8522" x2="908.6711" y2="26.7121" gradientTransform="matrix(-0.9817 -0.1903 -0.1903 0.9817 1011.0729 536.6474)">
			<stop  offset="0" style="stop-color:#FFFFFF"/>
			<stop  offset="1" style="stop-color:#FFFFFF;stop-opacity:0"/>
		</linearGradient>
		<path id="XMLID_89_" class="st29" d="M37.5,415.2L71.8,331c41.1,18.8,72.9,3.4,108.9,2c8-0.3,15.1,0.8,21.3,2.9l-45.9,112.7
			c-1.7,4.2-6.2,7-10.3,6.2c-0.2,0-0.4-0.1-0.6-0.1l-103.3-29l-0.1,0c-0.3-0.1-0.6-0.2-0.9-0.3l-0.2-0.1c-0.2-0.1-0.4-0.2-0.7-0.4
			c-0.1,0-0.1-0.1-0.2-0.1c-0.3-0.2-0.5-0.4-0.7-0.6c0,0-0.1,0-0.1-0.1c-0.2-0.2-0.4-0.4-0.6-0.6C36.7,421.3,36.3,418.1,37.5,415.2z
			"/>
		<path id="XMLID_88_" class="st30" d="M160.3,227c0.4-0.6,1.2-1,1.9-0.7l26.6,7.4c0.1,0,0.2,0.1,0.3,0.2c0,0,0,0,0.1,0
			c0.1,0.1,0.2,0.1,0.2,0.2l0,0l0,0c0,0.1,0.1,0.2,0.2,0.2c0,0,0,0,0,0.1c0,0.1,0,0.2,0,0.2c0,0,0,0.1,0,0.1c0,0.1,0,0.2,0,0.2
			c0,0,0,0.1,0,0.1c0,0.1,0,0.2-0.1,0.3c-0.1,0.3-0.3,0.5-0.6,0.7c-0.4,0.3-1,0.5-1.4,0.3l-26.6-7.4c-0.7-0.2-1.1-0.8-0.9-1.5
			c0-0.1,0-0.2,0.1-0.3C160.3,227.2,160.3,227.1,160.3,227z"/>
		<path id="XMLID_386_" class="st30" d="M196.4,233.8c-1.7-0.5-3.5,0.5-4.2,2.2c-0.7,1.7,0.1,3.5,1.8,3.9c1.7,0.5,3.5-0.5,4.2-2.2
			C198.9,236.1,198.1,234.3,196.4,233.8z M196.3,236.7c0,0,0,0.1,0,0.2c0,0,0,0,0,0.1c0,0.1,0,0.2-0.1,0.2c0,0.1-0.1,0.1-0.1,0.2
			c-0.2,0.3-0.5,0.5-0.8,0.6c0,0-0.1,0-0.1,0c-0.2,0-0.3,0-0.5,0c-0.5-0.1-0.8-0.6-0.7-1.2c0,0,0-0.1,0.1-0.2
			c0.2-0.5,0.8-0.9,1.3-0.8c0.1,0,0.2,0,0.2,0c0.1,0,0.2,0.1,0.2,0.1l0,0c0,0,0.1,0.1,0.2,0.2c0,0,0,0,0,0c0,0,0.1,0.1,0.1,0.2v0
			C196.3,236.5,196.3,236.5,196.3,236.7C196.3,236.6,196.3,236.6,196.3,236.7z"/>
		<path id="XMLID_85_" class="st24" d="M247.1,243.1c1.6,2,1.9,4.9,0.7,7.8l-4-5c0.1-0.3,0.2-0.7,0.3-1c0-0.1,0-0.2,0.1-0.3
			c0-0.2,0.1-0.5,0.2-0.7c0-0.1,0-0.2,0-0.3c0-0.3,0.1-0.6,0.1-0.9c0,0,0,0,0-0.1c0-0.3,0-0.6,0-0.9c0-0.1,0-0.2,0-0.2
			c0-0.2-0.1-0.5-0.1-0.7c0-0.1,0-0.2,0-0.2c-0.1-0.2-0.1-0.5-0.2-0.7c0,0,0,0,0-0.1c-0.1-0.3-0.2-0.5-0.4-0.8
			c0-0.1-0.1-0.1-0.1-0.2c-0.1-0.2-0.2-0.4-0.4-0.5c0,0,0-0.1-0.1-0.1C244.5,239.8,245.8,241.4,247.1,243.1z"/>
		<path id="XMLID_84_" class="st31" d="M41.5,426.4c-0.3-0.1-0.5-0.2-0.8-0.3C40.9,426.1,41.2,426.3,41.5,426.4z"/>
		<path id="XMLID_83_" class="st31" d="M39.9,425.7c0.2,0.1,0.4,0.2,0.5,0.3C40.3,425.9,40.1,425.7,39.9,425.7z"/>
		<path id="XMLID_82_" class="st31" d="M38.5,424.4c0.2,0.2,0.3,0.4,0.5,0.5C38.8,424.8,38.7,424.6,38.5,424.4z"/>
		<path id="XMLID_81_" class="st31" d="M39.1,425c0.2,0.2,0.4,0.3,0.6,0.5C39.5,425.4,39.3,425.2,39.1,425z"/>
		<path id="XMLID_80_" class="st32" d="M32.6,429.1c0,0,0.1,0.1,0.1,0.1c0.1,0.2,0.3,0.3,0.4,0.5l0,0c0.1,0.1,0.3,0.2,0.5,0.4
			c0,0,0.1,0.1,0.1,0.1c0.2,0.1,0.4,0.2,0.5,0.3c0,0,0,0,0,0c0.2,0.1,0.4,0.2,0.6,0.3c0,0,0.1,0,0.2,0.1c0.2,0.1,0.4,0.2,0.7,0.2
			l111.9,31.4c4,1.1,8.6-1.5,10.4-5.9l85.8-210.7l4,5l-85.8,210.7c-1.8,4.4-7.8,8.9-13.6,7.8L39.1,438.5c-1.4-0.4-2.4-1.1-3.2-2.2
			l-3.3-7.4C32.5,429,32.6,429.1,32.6,429.1z"/>
	</g>
</g>
<g id="lcd-1">
	<g id="XMLID_427_">
		<path id="XMLID_500_" class="st33" d="M174.1,429.1c-4-5.9-4.4-13.8-4.4-13.8h-11h-4.9h-11c0,0-0.4,7.9-4.4,13.8
			c-4,5.9-12.5,9.6-12.5,9.6h28h4.9h28C186.6,438.7,178.1,435,174.1,429.1z"/>
		<path id="XMLID_499_" class="st34" d="M156.5,427.9c6.9-0.1,13.5,1.1,19.5,3.6c-0.7-0.7-1.4-1.5-1.9-2.4c-4-5.9-4.4-13.8-4.4-13.8
			h-27c0,0-0.4,7.9-4.4,13.8c-0.7,1-1.5,1.9-2.4,2.8C142.2,428.9,150,428,156.5,427.9z"/>
		<path id="XMLID_498_" class="st33" d="M128.7,433.8c-1.8,1-3,1.6-3,1.6h1.8C127.9,434.8,128.3,434.3,128.7,433.8z"/>
		<g id="XMLID_490_">
			<path id="XMLID_497_" class="st35" d="M293.9,410.9c0,4.9-4,8.9-8.9,8.9H35.6c-4.9,0-8.9-4-8.9-8.9V246.6c0-4.9,4-8.9,8.9-8.9
				h249.5c4.9,0,8.9,4,8.9,8.9L293.9,410.9L293.9,410.9z"/>
			<path id="XMLID_496_" class="st36" d="M114.8,237.8H35.6c-4.9,0-8.9,4-8.9,8.9v69.6C56,289.9,84.8,263.1,114.8,237.8z"/>
			<path id="XMLID_495_" class="st37" d="M43.2,349.8c42.5-40.2,89-75.5,134.6-112h-54.5c-33,27.6-64.5,57.1-96.6,85.8v42.3
				C32.2,360.4,37.7,355.1,43.2,349.8z"/>
			<path id="XMLID_494_" class="st36" d="M204.6,237.8h-18c-8,6.5-16,12.8-24.1,19.2c-46.8,37.1-94,74-135.7,116.8v7.6
				C53.7,357.7,172.1,264.7,204.6,237.8z"/>
			<path id="XMLID_493_" class="st36" d="M293.2,258.3c0.3,0.3,0.5,0.6,0.7,1v-1.8C293.7,257.8,293.5,258,293.2,258.3z"/>
			<path id="XMLID_492_" class="st36" d="M165.5,404.1c-4.4,5.2-8.7,10.4-13,15.7h1.9C158,414.5,161.8,409.3,165.5,404.1z"/>
			<path id="XMLID_491_" class="st33" d="M26.8,394.5v16.4c0,4.9,4,8.9,8.9,8.9h249.5c4.9,0,8.9-4,8.9-8.9v-16.4H26.8z"/>
		</g>
		<g id="XMLID_487_">
			<polygon id="XMLID_489_" class="st38" points="79.4,437.1 234.1,437.1 259.3,449.2 50.8,449.2 			"/>
			<rect id="XMLID_488_" x="50.8" y="449.2" class="st33" width="208.5" height="3.3"/>
		</g>
		<rect id="XMLID_486_" x="55" y="390.8" class="st33" width="14.2" height="14.2"/>
		<g id="XMLID_428_">
			<g id="XMLID_467_">
				<g id="XMLID_477_">
					<polygon id="XMLID_485_" class="st33" points="97.2,441.6 89.2,441.5 94.4,439.3 101.7,439.3 					"/>
					<polygon id="XMLID_484_" class="st33" points="87.5,441.5 79.5,441.5 85.4,439.3 92.8,439.3 					"/>
					<polygon id="XMLID_483_" class="st33" points="116.6,441.6 108.7,441.6 112.2,439.3 119.5,439.3 					"/>
					<polygon id="XMLID_482_" class="st33" points="106.9,441.6 98.9,441.6 103.3,439.3 110.6,439.3 					"/>
					<polygon id="XMLID_481_" class="st33" points="136.2,441.6 128.2,441.6 130.2,439.3 137.5,439.3 					"/>
					<polygon id="XMLID_480_" class="st33" points="126.5,441.6 118.5,441.6 121.3,439.3 128.6,439.3 					"/>
					<polygon id="XMLID_479_" class="st33" points="155.6,441.6 147.6,441.6 148.1,439.3 155.4,439.3 					"/>
					<polygon id="XMLID_478_" class="st33" points="145.9,441.6 138,441.6 139.2,439.3 146.5,439.3 					"/>
				</g>
				<g id="XMLID_468_">
					<polygon id="XMLID_476_" class="st33" points="175.1,441.6 167.1,441.6 166,439.3 173.3,439.3 					"/>
					<polygon id="XMLID_475_" class="st33" points="165.4,441.6 157.5,441.6 157.1,439.3 164.4,439.3 					"/>
					<polygon id="XMLID_474_" class="st33" points="194.5,441.7 186.6,441.7 183.9,439.3 191.2,439.3 					"/>
					<polygon id="XMLID_473_" class="st33" points="184.8,441.7 176.9,441.6 174.9,439.3 182.3,439.3 					"/>
					<polygon id="XMLID_472_" class="st33" points="214.1,441.7 206.1,441.7 201.9,439.3 209.2,439.3 					"/>
					<polygon id="XMLID_471_" class="st33" points="204.4,441.7 196.4,441.7 192.9,439.3 200.3,439.3 					"/>
					<polygon id="XMLID_470_" class="st33" points="233.5,441.7 225.6,441.7 219.7,439.3 227.1,439.3 					"/>
					<polygon id="XMLID_469_" class="st33" points="223.8,441.7 215.9,441.7 210.8,439.3 218.1,439.3 					"/>
				</g>
			</g>
			<g id="XMLID_448_">
				<g id="XMLID_458_">
					<polygon id="XMLID_466_" class="st33" points="92,444.3 83.3,444.3 88.4,442 96.5,442 					"/>
					<polygon id="XMLID_465_" class="st33" points="81.4,444.3 72.7,444.3 78.6,442 86.6,442 					"/>
					<polygon id="XMLID_464_" class="st33" points="113.4,444.3 104.6,444.3 108.2,442 116.3,442.1 					"/>
					<polygon id="XMLID_463_" class="st33" points="102.7,444.3 94,444.3 98.3,442 106.4,442 					"/>
					<polygon id="XMLID_462_" class="st33" points="134.8,444.4 126.1,444.4 128.1,442.1 136.2,442.1 					"/>
					<polygon id="XMLID_461_" class="st33" points="124.2,444.4 115.4,444.3 118.2,442.1 126.3,442.1 					"/>
					<polygon id="XMLID_460_" class="st33" points="156.1,444.4 147.4,444.4 147.8,442.1 155.9,442.1 					"/>
					<polygon id="XMLID_459_" class="st33" points="145.4,444.4 136.8,444.4 138,442.1 146.1,442.1 					"/>
				</g>
				<g id="XMLID_449_">
					<polygon id="XMLID_457_" class="st33" points="177.5,444.4 168.8,444.4 167.7,442.1 175.7,442.1 					"/>
					<polygon id="XMLID_456_" class="st33" points="166.8,444.4 158.1,444.4 157.8,442.1 165.9,442.1 					"/>
					<polygon id="XMLID_455_" class="st33" points="198.8,444.5 190.1,444.5 187.4,442.1 195.5,442.1 					"/>
					<polygon id="XMLID_454_" class="st33" points="188.2,444.5 179.4,444.5 177.5,442.1 185.6,442.1 					"/>
					<polygon id="XMLID_453_" class="st33" points="220.3,444.5 211.6,444.5 207.3,442.1 215.4,442.2 					"/>
					<polygon id="XMLID_452_" class="st33" points="209.7,444.5 200.9,444.5 197.4,442.1 205.5,442.1 					"/>
					<polygon id="XMLID_451_" class="st33" points="241.6,444.6 232.9,444.5 227,442.2 235.1,442.2 					"/>
					<polygon id="XMLID_450_" class="st33" points="230.9,444.5 222.2,444.5 217.1,442.2 225.2,442.2 					"/>
				</g>
			</g>
			<g id="XMLID_429_">
				<g id="XMLID_441_">
					<polygon id="XMLID_447_" class="st33" points="86.8,446.9 77.3,446.9 82.4,444.7 91.3,444.7 					"/>
					<polygon id="XMLID_446_" class="st33" points="75.2,446.9 65.7,446.9 71.6,444.7 80.5,444.7 					"/>
					<polygon id="XMLID_445_" class="st33" points="109.9,447 100.4,447 104,444.7 112.8,444.7 					"/>
					<polygon id="XMLID_444_" class="st33" points="98.3,447 88.8,446.9 93.2,444.7 102.1,444.7 					"/>
					<polygon id="XMLID_443_" class="st33" points="156.1,447.1 123.7,447.1 125.8,444.8 155.9,444.8 					"/>
					<polygon id="XMLID_442_" class="st33" points="121.7,447 112.2,447 115,444.7 123.8,444.8 					"/>
				</g>
				<g id="XMLID_430_">
					<polygon id="XMLID_440_" class="st33" points="179.6,447.2 170.1,447.2 169,444.8 177.8,444.8 					"/>
					<polygon id="XMLID_439_" class="st33" points="168,447.2 158.5,447.1 158.2,444.8 167,444.8 					"/>
					<polygon id="XMLID_438_" class="st33" points="202.7,447.2 193.3,447.2 190.6,444.9 199.4,444.9 					"/>
					<polygon id="XMLID_437_" class="st33" points="191.2,447.2 181.7,447.2 179.8,444.8 188.6,444.9 					"/>
					<polygon id="XMLID_436_" class="st33" points="226.1,447.3 216.6,447.3 212.3,444.9 221.1,444.9 					"/>
					<polygon id="XMLID_435_" class="st33" points="214.5,447.3 205,447.2 201.5,444.9 210.4,444.9 					"/>
					<polygon id="XMLID_433_" class="st33" points="249.2,447.4 239.7,447.4 233.9,444.9 242.7,445 					"/>
					<polygon id="XMLID_432_" class="st33" points="237.6,447.3 228.2,447.3 223.1,444.9 231.9,444.9 					"/>
				</g>
			</g>
		</g>
	</g>
</g>
<g id="laptop-1">
	<g id="XMLID_416_">
		<path id="XMLID_425_" class="st39" d="M294.5,398.7c0,3.9-3.2,7.1-7.1,7.1H47.6c-3.9,0-7.1-3.2-7.1-7.1V243.3
			c0-3.9,3.2-7.1,7.1-7.1h239.9c3.9,0,7.1,3.2,7.1,7.1V398.7L294.5,398.7z"/>
		<path id="XMLID_424_" class="st40" d="M290.9,393.2c0,3.7-3.1,6.6-6.9,6.6H51c-3.8,0-6.9-3-6.9-6.6V247.8c0-3.7,3.1-6.6,6.9-6.6
			h233c3.8,0,6.9,3,6.9,6.6V393.2z"/>
		<rect id="XMLID_423_" x="51.8" y="247.1" class="st41" width="231.5" height="147.7"/>
		<polygon id="XMLID_422_" class="st42" points="44.1,405.8 8.5,448.2 330.3,448.2 290.9,405.8 		"/>
		<polygon id="XMLID_420_" class="st43" points="51.9,409.8 34.7,431.8 304.8,431.8 285.8,409.8 		"/>
		<polygon id="XMLID_419_" class="st43" points="137.7,436.5 133,442.5 206.5,442.5 201.3,436.5 		"/>
		<path id="XMLID_418_" class="st44" d="M320.3,458.2H18.6c-5.5,0-10-4.5-10-10l0,0h321.7l0,0C330.3,453.7,325.8,458.2,320.3,458.2z
			"/>
		<path id="XMLID_417_" class="st45" d="M157.3,399.9H51.1c-3.8,0-6.9-3-6.9-6.6V247.8c0-3.7,3.1-6.6,6.9-6.6h64.5L157.3,399.9z"/>
	</g>
</g>
<g id="mobile-2">
	<g id="XMLID_312_">
		<path id="XMLID_414_" class="st20" d="M853.7,399.4c-0.3,0.7,0,1.5,0.7,1.8l6.7,2.8c0.7,0.3,1.5,0,1.8-0.7l8.3-21
			c0.3-0.7,0-1.5-0.7-1.8l-6.7-2.8c-0.7-0.3-1.5,0-1.8,0.7L853.7,399.4z"/>
		<path id="XMLID_413_" class="st20" d="M842.6,426.4c-0.3,0.7,0,1.5,0.7,1.8l6.7,2.8c0.7,0.3,1.5,0,1.8-0.7l8.4-21
			c0.3-0.7,0-1.5-0.7-1.8l-6.7-2.8c-0.7-0.3-1.5,0-1.8,0.7L842.6,426.4z"/>
		<path id="XMLID_410_" class="st21" d="M788.1,564.8l85.8-210.7c1.8-4.4,6.5-7,10.4-5.9l111.9,31.4c1.1,0.3,2,0.9,2.7,1.6
			c0.2,0.2,0.4,0.4,0.6,0.7c0.1,0.2,0.2,0.3,0.4,0.5c0,0.1,0.1,0.1,0.1,0.2c0.1,0.2,0.2,0.5,0.4,0.8c0,0,0,0,0,0.1
			c0.1,0.2,0.2,0.5,0.2,0.7c0,0.1,0,0.2,0,0.2c0,0.2,0.1,0.4,0.1,0.7c0,0.1,0,0.2,0,0.2c0,0.3,0,0.6,0,0.9c0,0,0,0,0,0.1
			c0,0.3,0,0.6-0.1,0.9c0,0.1,0,0.2,0,0.3c0,0.2-0.1,0.5-0.2,0.7c0,0.1,0,0.2-0.1,0.3c-0.1,0.3-0.2,0.7-0.3,1l-85.8,210.7
			c-1.8,4.4-6.5,7-10.4,5.9l-111.9-31.4c-0.2-0.1-0.5-0.1-0.7-0.2c0,0-0.1,0-0.2-0.1c-0.2-0.1-0.4-0.2-0.6-0.3h0
			c-0.2-0.1-0.4-0.2-0.5-0.3c0,0-0.1-0.1-0.1-0.1c-0.2-0.1-0.3-0.2-0.5-0.4l0,0c-0.2-0.1-0.3-0.3-0.4-0.5c0,0-0.1-0.1-0.1-0.1
			C787.3,570.8,786.9,567.8,788.1,564.8z"/>
		<path id="XMLID_409_" class="st22" d="M790.7,574.2c-0.2-0.1-0.4-0.2-0.5-0.3C790.3,574,790.5,574.1,790.7,574.2z"/>
		<path id="XMLID_408_" class="st22" d="M790,573.7c-0.2-0.1-0.3-0.2-0.5-0.4C789.7,573.6,789.9,573.6,790,573.7z"/>
		<path id="XMLID_407_" class="st22" d="M792,574.8c-0.2-0.1-0.5-0.1-0.7-0.2C791.6,574.6,791.8,574.7,792,574.8z"/>
		<path id="XMLID_406_" class="st22" d="M791.3,574.5c-0.2-0.1-0.4-0.2-0.6-0.3C790.9,574.3,791,574.4,791.3,574.5z"/>
		<path id="XMLID_405_" class="st22" d="M789.5,573.3c-0.2-0.1-0.3-0.3-0.4-0.5C789.2,573.1,789.4,573.2,789.5,573.3z"/>
		<path id="XMLID_404_" class="st23" d="M954.6,378.4c0-0.1,0.1-0.2,0.1-0.2C954.6,378.3,954.6,378.3,954.6,378.4z"/>
		<path id="XMLID_403_" class="st24" d="M956.9,377.9L956.9,377.9c0,0.1,0.1,0.2,0.1,0.2l0,0C956.9,378.1,956.9,378,956.9,377.9z"/>
		<path id="XMLID_401_" class="st21" d="M956.6,377.7C956.6,377.7,956.6,377.7,956.6,377.7c0.2,0.1,0.2,0.2,0.3,0.2c0,0,0,0,0,0
			c0,0.1,0.1,0.2,0.1,0.2c0,0,0,0,0,0.1c0,0.1,0,0.1,0,0.2c0,0,0,0,0,0.1c0,0.1,0,0.1,0,0.2c0,0,0,0,0,0.1c0,0.1,0,0.2-0.1,0.3
			c0,0.1-0.1,0.2-0.1,0.2c-0.2,0.3-0.6,0.6-1,0.7c0,0-0.1,0-0.1,0c-0.2,0-0.3,0-0.5,0c-0.6-0.2-0.9-0.7-0.8-1.3c0-0.1,0-0.2,0.1-0.2
			c0-0.1,0.1-0.2,0.1-0.2c0.1-0.1,0.2-0.2,0.3-0.3l0,0c0.3-0.2,0.6-0.3,1-0.3c0.1,0,0.2,0,0.2,0
			C956.4,377.6,956.5,377.6,956.6,377.7z"/>
		
			<linearGradient id="XMLID_508_" gradientUnits="userSpaceOnUse" x1="47.6891" y1="-156.2106" x2="204.341" y2="80.5576" gradientTransform="matrix(-0.9817 -0.1903 -0.1903 0.9817 1011.0729 536.6474)">
			<stop  offset="0" style="stop-color:#F9ED32"/>
			<stop  offset="0.1559" style="stop-color:#F99C3C"/>
			<stop  offset="0.4462" style="stop-color:#ED1C24"/>
			<stop  offset="0.7419" style="stop-color:#92278F"/>
			<stop  offset="1" style="stop-color:#2B3990"/>
		</linearGradient>
		<path id="XMLID_400_" class="st46" d="M911.5,591.9c-1.7,4-6,6.5-9.6,5.5l-103.4-29l0,0c-0.3-0.1-0.5-0.2-0.8-0.3
			c-0.1,0-0.2-0.1-0.2-0.1c-0.2-0.1-0.4-0.2-0.5-0.3c-0.1,0-0.1-0.1-0.2-0.1c-0.2-0.2-0.4-0.3-0.6-0.5c0,0,0,0-0.1-0.1
			c-0.2-0.2-0.3-0.3-0.5-0.5c-1.5-1.8-1.9-4.6-0.7-7.3l80.5-197.7c0.2-0.5,0.5-1,0.7-1.4c0.2-0.4,0.6-0.8,0.9-1.2c0,0,0,0,0.1-0.1
			l0,0c0.2-0.2,0.4-0.4,0.5-0.6c0.1-0.1,0.2-0.2,0.2-0.2c0.1-0.1,0.2-0.2,0.3-0.3c0.1-0.1,0.2-0.1,0.2-0.2c0.1-0.1,0.2-0.2,0.3-0.2
			l0,0c0.1-0.1,0.2-0.2,0.4-0.2c0.1,0,0.2-0.1,0.3-0.2c0.1,0,0.2-0.1,0.3-0.2s0.2-0.1,0.4-0.2c0,0,0.1,0,0.2-0.1
			c0.2-0.1,0.3-0.2,0.5-0.2c0,0,0,0,0.1,0c0.2-0.1,0.4-0.1,0.6-0.2l0,0c1.2-0.3,2.4-0.3,3.5,0l0,0l22.7,6.4
			c-0.1,0.5-0.2,1.1-0.4,1.8c0,0.2-0.1,0.4-0.1,0.6c0,0,0,0.1,0,0.1c0,0.2-0.1,0.5-0.1,0.7c0,0,0,0.1,0,0.1c0,0.1,0,0.2,0,0.4
			c0,0.1,0,0.2,0,0.3c0,0,0,0,0,0.1c0,0.2,0,0.5-0.1,0.7c0,0,0,0.1,0,0.2c0,0.2,0,0.5,0,0.7c0,0,0,0,0,0.1c0,0.2,0,0.5,0,0.7
			c0,0,0,0.1,0,0.1c0,0.2,0,0.5,0,0.7c0,0,0,0.1,0,0.1c0,0.2,0,0.5,0,0.7v0c0,0.2,0.1,0.5,0.1,0.7c0,0,0,0.1,0,0.1
			c0,0.2,0.1,0.5,0.2,0.7c0,0,0,0.1,0,0.1c0.1,0.4,0.3,0.8,0.5,1.2c0,0,0,0.1,0,0.1c0.1,0.2,0.2,0.3,0.3,0.5c0,0,0,0,0.1,0.1
			c0.1,0.1,0.2,0.2,0.3,0.3c0,0,0,0,0.1,0.1c0.1,0.1,0.2,0.2,0.4,0.3c0,0,0,0,0.1,0c0.1,0.1,0.2,0.2,0.4,0.2c0,0,0.1,0,0.1,0
			c0.2,0.1,0.3,0.2,0.5,0.2l0,0l17.2,4.8l10,2.8l17.2,4.8l0,0c1.7,0.5,3.2-0.1,4.8-1.2c2.9-2.1,5.4-5.9,6.5-7.8l0,0l22.7,6.4l0,0
			l0,0c0.3,0.1,0.5,0.2,0.8,0.3c0.1,0,0.2,0.1,0.2,0.1c0.2,0.1,0.4,0.2,0.5,0.3c0.1,0,0.1,0.1,0.2,0.1c0.2,0.2,0.4,0.3,0.6,0.5
			c0,0,0,0,0,0.1c0.2,0.2,0.3,0.3,0.5,0.5c0,0.1,0.1,0.1,0.2,0.2c0.1,0.2,0.2,0.3,0.3,0.5c0,0.1,0.1,0.1,0.1,0.2
			c0.1,0.2,0.2,0.5,0.3,0.7c0,0,0,0,0,0.1c0.1,0.2,0.2,0.5,0.2,0.7c0,0.1,0,0.2,0,0.2c0,0.2,0.1,0.4,0.1,0.6c0,0.1,0,0.2,0,0.2
			c0,0.3,0,0.6,0,0.9v0c0,0.3,0,0.5-0.1,0.8c0,0.1,0,0.2,0,0.3c0,0.2-0.1,0.5-0.1,0.7c0,0.1,0,0.2-0.1,0.3c-0.1,0.3-0.2,0.6-0.3,0.9
			L911.5,591.9z"/>
		<path id="XMLID_399_" class="st26" d="M986,384.4l2.4,0.7l0,0l0,0c0.3,0.1,0.5,0.2,0.8,0.3c0.1,0,0.2,0.1,0.2,0.1
			c0.2,0.1,0.4,0.2,0.5,0.3c0.1,0,0.1,0.1,0.2,0.1c0.2,0.2,0.4,0.3,0.6,0.5c0,0,0,0,0,0.1c0.2,0.2,0.3,0.3,0.5,0.5
			c0,0.1,0.1,0.1,0.2,0.2c0.1,0.2,0.2,0.3,0.3,0.5c0,0.1,0.1,0.1,0.1,0.2c0.1,0.2,0.2,0.5,0.3,0.7c0,0,0,0,0,0.1
			c0.1,0.2,0.2,0.5,0.2,0.7c0,0.1,0,0.2,0,0.2c0,0.2,0.1,0.4,0.1,0.6c0,0.1,0,0.2,0,0.2c0,0.3,0,0.6,0,0.9v0c0,0.3,0,0.5-0.1,0.8
			c0,0.1,0,0.2,0,0.3c0,0.2-0.1,0.5-0.1,0.7c0,0.1,0,0.2-0.1,0.3c-0.1,0.3-0.2,0.6-0.3,0.9l-80.5,197.7c-1.7,4-6,6.5-9.6,5.5
			l-61.2-17.2L986,384.4z"/>
		<path id="XMLID_398_" class="st27" d="M843.8,439.1l31.6-77.6c0.2-0.5,0.5-1,0.7-1.4c0.2-0.4,0.6-0.8,0.9-1.2c0,0,0,0,0.1-0.1l0,0
			c0.2-0.2,0.4-0.4,0.5-0.6c0.1-0.1,0.2-0.2,0.2-0.2c0.1-0.1,0.2-0.2,0.3-0.3c0.1-0.1,0.2-0.1,0.2-0.2c0.1-0.1,0.2-0.2,0.3-0.2l0,0
			c0.1-0.1,0.2-0.2,0.4-0.2c0.1,0,0.2-0.1,0.3-0.2c0.1,0,0.2-0.1,0.3-0.2c0.1,0,0.2-0.1,0.4-0.2c0,0,0.1,0,0.2-0.1
			c0.2-0.1,0.3-0.2,0.5-0.2c0,0,0,0,0.1,0c0.2-0.1,0.4-0.1,0.6-0.2l0,0c1.2-0.3,2.4-0.3,3.5,0l0,0l22.7,6.4
			c-0.1,0.5-0.2,1.1-0.4,1.8c0,0.2-0.1,0.4-0.1,0.6c0,0,0,0.1,0,0.1c0,0.2-0.1,0.5-0.1,0.7c0,0,0,0.1,0,0.1c0,0.1,0,0.2,0,0.4
			c0,0.1,0,0.2,0,0.3c0,0,0,0,0,0.1c0,0.2,0,0.5-0.1,0.7c0,0,0,0.1,0,0.2c0,0.2,0,0.5,0,0.7c0,0,0,0,0,0.1c0,0.2,0,0.5,0,0.7
			c0,0,0,0.1,0,0.1c0,0.2,0,0.5,0,0.7c0,0,0,0.1,0,0.1c0,0.2,0,0.5,0,0.7v0c0,0.1,0,0.2,0,0.3L843.8,439.1z"/>
		<path id="XMLID_395_" class="st28" d="M794.9,567c0.2,0.2,0.4,0.4,0.6,0.6c0,0,0,0,0.1,0.1c0.2,0.2,0.4,0.4,0.7,0.6
			c0,0,0.1,0.1,0.2,0.1c0.2,0.2,0.5,0.2,0.7,0.4l0.2,0.1c0.3,0.1,0.6,0.2,0.9,0.3l0.1,0l103.3,29c0.2,0,0.4,0.1,0.6,0.1
			c4,0.8,8.5-1.9,10.3-6.2L993,394.5c0.1-0.3,0.2-0.6,0.3-1c0-0.1,0-0.2,0-0.2c0.1-0.3,0.1-0.6,0.2-0.8l0-0.3c0-0.3,0.1-0.6,0.1-1
			s0-0.7,0-1l0-0.2c0-0.3-0.1-0.6-0.1-0.8c0-0.1,0-0.2-0.1-0.3c-0.1-0.2-0.2-0.5-0.2-0.8l0-0.1c-0.1-0.3-0.2-0.6-0.4-0.9
			c0,0-0.1-0.1-0.1-0.2c-0.2-0.2-0.3-0.5-0.4-0.6c0-0.1-0.1-0.1-0.2-0.2c-0.2-0.2-0.4-0.4-0.6-0.6l0,0c-0.2-0.2-0.5-0.4-0.7-0.6
			c0,0-0.1-0.1-0.2-0.1c-0.2-0.2-0.5-0.2-0.7-0.4c-0.1,0-0.2-0.1-0.2-0.1c-0.3-0.1-0.6-0.2-0.9-0.3l-103.4-29c-1.3-0.4-2.6-0.4-4,0
			c-0.2,0-0.5,0.1-0.7,0.2l-0.1,0c-0.2,0.1-0.4,0.2-0.6,0.2l-0.2,0.1c-0.1,0.1-0.2,0.1-0.3,0.2l-0.2,0.1c-0.1,0-0.2,0.1-0.2,0.1
			c-0.1,0-0.2,0.1-0.2,0.2l-0.2,0.1c-0.1,0.1-0.2,0.1-0.3,0.2c-0.1,0-0.2,0.1-0.3,0.2l-0.2,0.1c-0.1,0.1-0.1,0.1-0.2,0.2
			c-0.1,0.1-0.2,0.2-0.2,0.2l-0.2,0.2c-0.1,0-0.1,0.1-0.2,0.2c-0.2,0.2-0.4,0.4-0.6,0.6l-0.1,0.1c-0.4,0.5-0.7,0.9-1,1.3
			c-0.3,0.5-0.6,1.1-0.8,1.6l-80.5,197.7C792.7,561.8,793.1,564.9,794.9,567z M905.9,368.8v0.1c0,0.2,0,0.5,0,0.7v0.2
			c0,0.2,0,0.5,0.1,0.8c0,0.3,0.1,0.5,0.1,0.8l0,0.1c0,0.2,0.1,0.5,0.2,0.7l0,0.1c0.2,0.5,0.4,1,0.6,1.4l0,0.1
			c0.1,0.2,0.2,0.4,0.4,0.6l0.1,0.1c0.1,0.2,0.2,0.3,0.4,0.4l0.1,0.1c0.2,0.1,0.3,0.3,0.5,0.4l0.1,0.1c0.2,0.1,0.3,0.2,0.5,0.3
			l0.2,0.1c0.2,0.1,0.4,0.2,0.7,0.2l44.4,12.4c1.8,0.5,3.7,0,5.6-1.4c2.8-2,5.1-5.4,6.4-7.4l22,6.1c0.2,0.1,0.5,0.2,0.7,0.2l0.1,0.1
			c0.2,0.1,0.4,0.2,0.5,0.3l0.2,0.1c0.2,0.1,0.3,0.2,0.5,0.4l0,0c0.2,0.2,0.3,0.3,0.4,0.5l0.1,0.2c0.1,0.1,0.2,0.3,0.3,0.4l0.1,0.2
			c0.1,0.2,0.2,0.4,0.3,0.6c0.1,0.2,0.2,0.5,0.2,0.7l0,0.2c0,0.2,0,0.4,0.1,0.6l0,0.2c0,0.2,0,0.5,0,0.7c0,0.3,0,0.5-0.1,0.8l0,0.2
			c0,0.2-0.1,0.5-0.1,0.7l-0.1,0.2c-0.1,0.2-0.2,0.5-0.3,0.8l-80.5,197.7c-1.4,3.6-5.2,5.8-8.4,4.9l-103.5-29
			c-0.2-0.1-0.4-0.1-0.6-0.2l-0.1,0c-0.2-0.1-0.4-0.2-0.5-0.3l-0.2-0.1c-0.2-0.1-0.3-0.2-0.5-0.4c-0.2-0.2-0.3-0.3-0.5-0.5
			c-1.3-1.6-1.6-4-0.6-6.3l80.5-197.7c0.2-0.4,0.4-0.9,0.7-1.3c0.2-0.4,0.5-0.7,0.8-1.1l0.2-0.2c0.2-0.2,0.3-0.3,0.4-0.4l0.9-0.7
			c0.1-0.1,0.1-0.1,0.2-0.2s0.1-0.1,0.2-0.1l0.2-0.1c0.1,0,0.1,0,0.2-0.1c0.1,0,0.1,0,0.2-0.1l0.2-0.1c0.1,0,0.2,0,0.2-0.1l0.1,0
			c0.2-0.1,0.3-0.2,0.5-0.2c0.2-0.1,0.5-0.2,0.6-0.2c1-0.2,2.1-0.3,3,0l21.7,6.1c-0.1,0.3-0.2,0.6-0.2,0.9c0,0.2-0.1,0.4-0.1,0.6
			l0,0.1c0,0.2-0.1,0.5-0.1,0.7l-0.1,0.9c0,0.2-0.1,0.5-0.1,0.7v0.2c0,0.3,0,0.5,0,0.8C905.9,368.4,905.9,368.7,905.9,368.8
			L905.9,368.8L905.9,368.8z"/>
		
			<linearGradient id="XMLID_511_" gradientUnits="userSpaceOnUse" x1="119.8389" y1="-42.7806" x2="138.7756" y2="23.7838" gradientTransform="matrix(-0.9817 -0.1903 -0.1903 0.9817 1011.0729 536.6474)">
			<stop  offset="0" style="stop-color:#FFFFFF"/>
			<stop  offset="1" style="stop-color:#FFFFFF;stop-opacity:0"/>
		</linearGradient>
		<path id="XMLID_394_" class="st47" d="M793.9,558.8l34.3-84.1c41.1,18.8,72.9,3.4,108.9,2c8-0.3,15.1,0.8,21.3,2.9l-45.9,112.7
			c-1.7,4.2-6.2,7-10.3,6.2c-0.2,0-0.4-0.1-0.6-0.1l-103.3-29l-0.1,0c-0.3-0.1-0.6-0.2-0.9-0.3l-0.2-0.1c-0.2-0.1-0.4-0.2-0.7-0.4
			c-0.1,0-0.1-0.1-0.2-0.1c-0.3-0.2-0.5-0.4-0.7-0.6c0,0-0.1,0-0.1-0.1c-0.2-0.2-0.4-0.4-0.6-0.6
			C793.1,564.9,792.7,561.8,793.9,558.8z"/>
		<path id="XMLID_390_" class="st30" d="M916.7,370.7c0.4-0.6,1.2-1,1.9-0.7l26.6,7.4c0.1,0,0.2,0.1,0.3,0.2c0,0,0,0,0.1,0
			c0.1,0.1,0.2,0.1,0.2,0.2l0,0l0,0c0,0.1,0.1,0.2,0.2,0.2c0,0,0,0,0,0.1c0,0.1,0,0.2,0,0.2c0,0,0,0.1,0,0.1c0,0.1,0,0.2,0,0.2
			c0,0,0,0.1,0,0.1c0,0.1,0,0.2-0.1,0.3c-0.1,0.3-0.3,0.5-0.6,0.7c-0.4,0.3-1,0.5-1.4,0.3l-26.6-7.4c-0.7-0.2-1.1-0.8-0.9-1.5
			c0-0.1,0-0.2,0.1-0.3C916.6,370.8,916.7,370.7,916.7,370.7z"/>
		<path id="XMLID_387_" class="st30" d="M952.7,377.5c-1.7-0.5-3.5,0.5-4.2,2.2c-0.7,1.7,0.1,3.5,1.8,3.9c1.7,0.5,3.5-0.5,4.2-2.2
			C955.2,379.7,954.4,377.9,952.7,377.5z M952.7,380.3c0,0,0,0.1,0,0.2c0,0,0,0,0,0.1c0,0.1,0,0.2-0.1,0.2c0,0.1-0.1,0.1-0.1,0.2
			c-0.2,0.3-0.5,0.5-0.8,0.6c0,0-0.1,0-0.1,0c-0.2,0-0.3,0-0.5,0c-0.5-0.1-0.8-0.6-0.7-1.2c0,0,0-0.1,0.1-0.2
			c0.2-0.5,0.8-0.9,1.3-0.8c0.1,0,0.2,0,0.2,0c0.1,0,0.2,0.1,0.2,0.1l0,0c0,0,0.1,0.1,0.2,0.2s0,0,0,0c0,0,0.1,0.1,0.1,0.2v0
			C952.6,380.1,952.7,380.1,952.7,380.3C952.7,380.2,952.7,380.3,952.7,380.3z"/>
		<path id="XMLID_384_" class="st24" d="M1003.5,386.8c1.6,2,1.9,4.9,0.7,7.8l-4-5c0.1-0.3,0.2-0.7,0.3-1c0-0.1,0-0.2,0.1-0.3
			c0-0.2,0.1-0.5,0.2-0.7c0-0.1,0-0.2,0-0.3c0-0.3,0.1-0.6,0.1-0.9c0,0,0,0,0-0.1c0-0.3,0-0.6,0-0.9c0-0.1,0-0.2,0-0.2
			c0-0.2-0.1-0.5-0.1-0.7c0-0.1,0-0.2,0-0.2c-0.1-0.2-0.1-0.5-0.2-0.7c0,0,0,0,0-0.1c-0.1-0.3-0.2-0.5-0.4-0.8
			c0-0.1-0.1-0.1-0.1-0.2c-0.1-0.2-0.2-0.4-0.4-0.5c0,0,0-0.1-0.1-0.1C1000.8,383.4,1002.2,385.1,1003.5,386.8z"/>
		<path id="XMLID_383_" class="st31" d="M797.9,570c-0.3-0.1-0.5-0.2-0.8-0.3C797.3,569.8,797.6,569.9,797.9,570z"/>
		<path id="XMLID_382_" class="st31" d="M796.2,569.3c0.2,0.1,0.4,0.2,0.5,0.3C796.6,569.5,796.4,569.4,796.2,569.3z"/>
		<path id="XMLID_381_" class="st31" d="M794.9,568.1c0.2,0.2,0.3,0.4,0.5,0.5C795.2,568.4,795,568.2,794.9,568.1z"/>
		<path id="XMLID_380_" class="st31" d="M795.4,568.6c0.2,0.2,0.4,0.3,0.6,0.5C795.8,569,795.6,568.9,795.4,568.6z"/>
		<path id="XMLID_379_" class="st32" d="M789,572.8c0,0,0.1,0.1,0.1,0.1c0.1,0.2,0.3,0.3,0.4,0.5l0,0c0.1,0.1,0.3,0.2,0.5,0.4
			c0,0,0.1,0.1,0.1,0.1c0.2,0.1,0.4,0.2,0.5,0.3c0,0,0,0,0,0c0.2,0.1,0.4,0.2,0.6,0.3c0,0,0.1,0,0.2,0.1c0.2,0.1,0.4,0.2,0.7,0.2
			L904,606.1c4,1.1,8.6-1.5,10.4-5.9l85.8-210.7l4,5l-85.8,210.7c-1.8,4.4-7.8,8.9-13.6,7.8l-109.4-30.9c-1.4-0.4-2.4-1.1-3.2-2.2
			l-3.3-7.4C788.9,572.7,788.9,572.7,789,572.8z"/>
	</g>
</g>
<g id="lcd-2">
	<g id="XMLID_373_">
		<path id="XMLID_166_" class="st33" d="M914.1,554.5c-4-5.9-4.4-13.8-4.4-13.8h-11h-4.9h-11c0,0-0.4,7.9-4.4,13.8
			c-4,5.9-12.5,9.6-12.5,9.6h28h4.9h28C926.6,564.1,918.1,560.4,914.1,554.5z"/>
		<path id="XMLID_165_" class="st34" d="M896.5,553.3c6.9-0.1,13.5,1.1,19.5,3.6c-0.7-0.7-1.4-1.5-1.9-2.4c-4-5.9-4.4-13.8-4.4-13.8
			h-27c0,0-0.4,7.9-4.4,13.8c-0.7,1-1.5,1.9-2.4,2.8C882.2,554.3,890,553.5,896.5,553.3z"/>
		<path id="XMLID_164_" class="st33" d="M868.7,559.3c-1.8,1-3,1.6-3,1.6h1.8C867.9,560.3,868.3,559.8,868.7,559.3z"/>
		<g id="XMLID_434_">
			<path id="XMLID_163_" class="st35" d="M1033.9,536.4c0,4.9-4,8.9-8.9,8.9H775.6c-4.9,0-8.9-4-8.9-8.9V372.1c0-4.9,4-8.9,8.9-8.9
				h249.5c4.9,0,8.9,4,8.9,8.9L1033.9,536.4L1033.9,536.4z"/>
			<path id="XMLID_162_" class="st36" d="M854.8,363.2h-79.2c-4.9,0-8.9,4-8.9,8.9v69.6C796,415.4,824.8,388.6,854.8,363.2z"/>
			<path id="XMLID_161_" class="st37" d="M783.2,475.2c42.5-40.2,89-75.5,134.6-112h-54.5c-33,27.6-64.5,57.1-96.6,85.8v42.3
				C772.2,485.9,777.7,480.5,783.2,475.2z"/>
			<path id="XMLID_160_" class="st36" d="M944.6,363.2h-18c-8,6.5-16,12.8-24.1,19.2c-46.8,37.1-94,74-135.7,116.8v7.6
				C793.7,483.1,912.1,390.1,944.6,363.2z"/>
			<path id="XMLID_159_" class="st36" d="M1033.2,383.7c0.3,0.3,0.5,0.6,0.7,1V383C1033.7,383.3,1033.5,383.5,1033.2,383.7z"/>
			<path id="XMLID_158_" class="st36" d="M905.5,529.6c-4.4,5.2-8.7,10.4-13,15.7h1.9C898,540,901.8,534.8,905.5,529.6z"/>
			<path id="XMLID_157_" class="st33" d="M766.8,520v16.4c0,4.9,4,8.9,8.9,8.9h249.5c4.9,0,8.9-4,8.9-8.9V520H766.8z"/>
		</g>
		<g id="XMLID_431_">
			<polygon id="XMLID_156_" class="st38" points="819.4,562.6 974.1,562.6 999.3,574.7 790.8,574.7 			"/>
			<rect id="XMLID_155_" x="790.8" y="574.7" class="st33" width="208.5" height="3.3"/>
		</g>
		<rect id="XMLID_154_" x="795" y="516.3" class="st33" width="14.2" height="14.2"/>
		<g id="XMLID_374_">
			<g id="XMLID_411_">
				<g id="XMLID_421_">
					<polygon id="XMLID_153_" class="st33" points="837.2,567 829.2,567 834.4,564.7 841.7,564.7 					"/>
					<polygon id="XMLID_152_" class="st33" points="827.5,567 819.5,567 825.4,564.7 832.8,564.7 					"/>
					<polygon id="XMLID_151_" class="st33" points="856.6,567 848.7,567 852.2,564.7 859.5,564.7 					"/>
					<polygon id="XMLID_150_" class="st33" points="846.9,567 838.9,567 843.3,564.7 850.6,564.7 					"/>
					<polygon id="XMLID_149_" class="st33" points="876.2,567 868.2,567 870.2,564.7 877.5,564.7 					"/>
					<polygon id="XMLID_148_" class="st33" points="866.5,567 858.5,567 861.3,564.7 868.6,564.7 					"/>
					<polygon id="XMLID_147_" class="st33" points="895.6,567.1 887.6,567.1 888.1,564.7 895.4,564.7 					"/>
					<polygon id="XMLID_146_" class="st33" points="885.9,567.1 878,567.1 879.2,564.7 886.5,564.7 					"/>
				</g>
				<g id="XMLID_412_">
					<polygon id="XMLID_145_" class="st33" points="915.1,567.1 907.1,567.1 906,564.7 913.3,564.7 					"/>
					<polygon id="XMLID_144_" class="st33" points="905.4,567.1 897.5,567.1 897.1,564.7 904.4,564.7 					"/>
					<polygon id="XMLID_143_" class="st33" points="934.5,567.1 926.6,567.1 923.9,564.7 931.2,564.7 					"/>
					<polygon id="XMLID_142_" class="st33" points="924.8,567.1 916.9,567.1 914.9,564.7 922.3,564.7 					"/>
					<polygon id="XMLID_141_" class="st33" points="954.1,567.1 946.1,567.1 941.9,564.7 949.2,564.7 					"/>
					<polygon id="XMLID_140_" class="st33" points="944.4,567.1 936.4,567.1 932.9,564.7 940.3,564.7 					"/>
					<polygon id="XMLID_139_" class="st33" points="973.5,567.2 965.6,567.2 959.7,564.7 967.1,564.7 					"/>
					<polygon id="XMLID_138_" class="st33" points="963.8,567.2 955.9,567.1 950.8,564.7 958.1,564.7 					"/>
				</g>
			</g>
			<g id="XMLID_392_">
				<g id="XMLID_402_">
					<polygon id="XMLID_137_" class="st33" points="832,569.8 823.3,569.8 828.4,567.5 836.5,567.5 					"/>
					<polygon id="XMLID_136_" class="st33" points="821.4,569.8 812.7,569.7 818.6,567.5 826.6,567.5 					"/>
					<polygon id="XMLID_135_" class="st33" points="853.4,569.8 844.6,569.8 848.2,567.5 856.3,567.5 					"/>
					<polygon id="XMLID_134_" class="st33" points="842.7,569.8 834,569.8 838.3,567.5 846.4,567.5 					"/>
					<polygon id="XMLID_133_" class="st33" points="874.8,569.8 866.1,569.8 868.1,567.5 876.2,567.5 					"/>
					<polygon id="XMLID_132_" class="st33" points="864.2,569.8 855.4,569.8 858.2,567.5 866.3,567.5 					"/>
					<polygon id="XMLID_131_" class="st33" points="896.1,569.9 887.4,569.9 887.8,567.6 895.9,567.6 					"/>
					<polygon id="XMLID_130_" class="st33" points="885.5,569.9 876.8,569.8 878,567.5 886.1,567.6 					"/>
				</g>
				<g id="XMLID_393_">
					<polygon id="XMLID_129_" class="st33" points="917.5,569.9 908.8,569.9 907.7,567.6 915.7,567.6 					"/>
					<polygon id="XMLID_128_" class="st33" points="906.8,569.9 898.1,569.9 897.8,567.6 905.9,567.6 					"/>
					<polygon id="XMLID_127_" class="st33" points="938.8,569.9 930.1,569.9 927.4,567.6 935.5,567.6 					"/>
					<polygon id="XMLID_126_" class="st33" points="928.2,569.9 919.4,569.9 917.5,567.6 925.6,567.6 					"/>
					<polygon id="XMLID_125_" class="st33" points="960.3,570 951.6,570 947.3,567.6 955.4,567.6 					"/>
					<polygon id="XMLID_124_" class="st33" points="949.7,570 940.9,570 937.4,567.6 945.5,567.6 					"/>
					<polygon id="XMLID_123_" class="st33" points="981.6,570 972.9,570 967,567.6 975.1,567.6 					"/>
					<polygon id="XMLID_122_" class="st33" points="970.9,570 962.2,570 957.1,567.6 965.2,567.6 					"/>
				</g>
			</g>
			<g id="XMLID_375_">
				<g id="XMLID_385_">
					<polygon id="XMLID_121_" class="st33" points="826.8,572.4 817.3,572.4 822.4,570.1 831.3,570.1 					"/>
					<polygon id="XMLID_120_" class="st33" points="815.2,572.4 805.7,572.4 811.6,570.1 820.5,570.1 					"/>
					<polygon id="XMLID_119_" class="st33" points="849.9,572.5 840.4,572.4 844,570.2 852.8,570.2 					"/>
					<polygon id="XMLID_118_" class="st33" points="838.3,572.4 828.8,572.4 833.2,570.1 842.1,570.1 					"/>
					<polygon id="XMLID_117_" class="st33" points="896.1,572.6 863.7,572.5 865.8,570.2 895.9,570.3 					"/>
					<polygon id="XMLID_116_" class="st33" points="861.7,572.5 852.2,572.5 855,570.2 863.8,570.2 					"/>
				</g>
				<g id="XMLID_376_">
					<polygon id="XMLID_115_" class="st33" points="919.6,572.6 910.1,572.6 909,570.3 917.8,570.3 					"/>
					<polygon id="XMLID_114_" class="st33" points="908,572.6 898.5,572.6 898.2,570.3 907,570.3 					"/>
					<polygon id="XMLID_113_" class="st33" points="942.7,572.7 933.3,572.7 930.6,570.3 939.4,570.3 					"/>
					<polygon id="XMLID_112_" class="st33" points="931.2,572.7 921.7,572.7 919.8,570.3 928.6,570.3 					"/>
					<polygon id="XMLID_111_" class="st33" points="966.1,572.8 956.6,572.7 952.3,570.4 961.1,570.4 					"/>
					<polygon id="XMLID_110_" class="st33" points="954.5,572.7 945,572.7 941.5,570.4 950.4,570.4 					"/>
					<polygon id="XMLID_109_" class="st33" points="989.2,572.8 979.7,572.8 973.9,570.4 982.7,570.4 					"/>
					<polygon id="XMLID_108_" class="st33" points="977.6,572.8 968.2,572.8 963.1,570.4 971.9,570.4 					"/>
				</g>
			</g>
		</g>
	</g>
</g>
<g id="laptop-2">
	<g id="XMLID_314_">
		<path id="XMLID_79_" class="st39" d="M1034.5,524.2c0,3.9-3.2,7.1-7.1,7.1H787.6c-3.9,0-7.1-3.2-7.1-7.1V368.8
			c0-3.9,3.2-7.1,7.1-7.1h239.9c3.9,0,7.1,3.2,7.1,7.1V524.2L1034.5,524.2z"/>
		<path id="XMLID_78_" class="st40" d="M1030.9,518.7c0,3.7-3.1,6.6-6.9,6.6H791c-3.8,0-6.9-3-6.9-6.6V373.2c0-3.7,3.1-6.6,6.9-6.6
			h233c3.8,0,6.9,3,6.9,6.6V518.7z"/>
		<rect id="XMLID_77_" x="791.8" y="372.6" class="st41" width="231.5" height="147.7"/>
		<polygon id="XMLID_76_" class="st42" points="784.1,531.3 748.5,573.6 1070.3,573.6 1030.9,531.3 		"/>
		<polygon id="XMLID_75_" class="st43" points="791.9,535.3 774.7,557.2 1044.8,557.2 1025.8,535.3 		"/>
		<polygon id="XMLID_74_" class="st43" points="877.7,562 873,568 946.5,568 941.3,562 		"/>
		<path id="XMLID_73_" class="st44" d="M1060.3,583.6H758.6c-5.5,0-10-4.5-10-10l0,0h321.7l0,0
			C1070.3,579.1,1065.8,583.6,1060.3,583.6z"/>
		<path id="XMLID_72_" class="st45" d="M897.3,525.3H791.1c-3.8,0-6.9-3-6.9-6.6V373.2c0-3.7,3.1-6.6,6.9-6.6h64.5L897.3,525.3z"/>
	</g>
</g>
<g id="video-1">
	<g id="XMLID_107_">
		<path id="XMLID_67_" class="st48" d="M101.5,316.4c-0.3-1.9,0.9-3.6,2.8-4l95.7-17.2c1.9-0.3,3.6,0.9,4,2.8l11.7,65.2
			c0.3,1.9-0.9,3.6-2.8,4l-95.7,17.2c-1.9,0.3-3.6-0.9-4-2.8L101.5,316.4z"/>
		
			<rect id="XMLID_66_" x="122.6" y="361.9" transform="matrix(-0.9843 0.1764 -0.1764 -0.9843 384.32 690.7349)" class="st49" width="77.8" height="1.1"/>
		
			<rect id="XMLID_65_" x="179.8" y="359.6" transform="matrix(-0.9843 0.1764 -0.1764 -0.9843 422.1681 690.4309)" class="st49" width="1.1" height="8.7"/>
		
			<rect id="XMLID_64_" x="143.7" y="366.1" transform="matrix(-0.9843 0.1764 -0.1764 -0.9843 351.554 709.7039)" class="st49" width="1.1" height="8.7"/>
		<path id="XMLID_505_" class="st49" d="M153.4,316.1c-10.8,1.9-18,12.2-16,22.9c1.9,10.7,12.2,17.9,23,15.9
			c10.8-1.9,17.9-12.2,16-22.9C174.5,321.3,164.2,314.2,153.4,316.1z M159.9,352.4c-9.3,1.7-18.2-4.5-19.9-13.8
			c-1.7-9.3,4.5-18.2,13.9-19.8c9.3-1.7,18.2,4.5,19.9,13.8C175.5,341.8,169.2,350.7,159.9,352.4z"/>
		<path id="XMLID_502_" class="st50" d="M137.8,339c1.9,10.5,12,17.5,22.6,15.6c10.6-1.9,17.6-12,15.7-22.5
			c-1.9-10.5-12-17.5-22.6-15.6C143,318.4,135.9,328.5,137.8,339z M139.7,338.7c-1.7-9.5,4.7-18.6,14.2-20.3
			c9.5-1.7,18.6,4.6,20.3,14.1c1.7,9.5-4.7,18.5-14.2,20.3S141.4,348.1,139.7,338.7z"/>
		<path id="XMLID_59_" class="st51" d="M200.4,297.8l-95.7,17.2c-0.4,0.1-0.7,0.5-0.7,1l11.7,65.2c0.1,0.3,0.3,0.6,0.6,0.6
			c1.9-15.9,9.2-30.8,20.3-43c-1.7-10.9,5.7-21.3,16.7-23.3c4.6-0.8,9.1,0,13,1.9c7.1-3.2,14.8-5.6,22.9-7.1
			c4.7-0.8,9.4-1.3,14.1-1.5l-1.9-10.4C201.3,298,200.9,297.7,200.4,297.8z"/>
		<path id="XMLID_58_" class="st52" d="M147.2,327.4c-0.1-0.8,0.1-1.6,0.6-2s1.3-0.5,2.1-0.2l1.7,0.6c3.1-2.2,6.4-4.1,9.8-5.9
			c-2.3-0.6-4.8-0.8-7.3-0.4c-7.7,1.4-13.1,7.9-13.5,15.3c2.2-2.1,4.5-4.1,6.9-6C147.3,327.9,147.2,327.4,147.2,327.4z"/>
		<path id="XMLID_57_" class="st49" d="M168.5,334.6c1-0.8,0.8-1.8-0.4-2.2l-7.1-2.5c-1.2-0.4-3.1-1.1-4.3-1.5l-7.1-2.5
			c-1.2-0.4-1.9,0.2-1.7,1.5l1.3,7.4c0.2,1.2,0.6,3.2,0.8,4.4l1.3,7.4c0.2,1.2,1.2,1.6,2.1,0.8l5.8-4.8c1-0.8,2.5-2.1,3.5-2.9
			L168.5,334.6z"/>
		<path id="XMLID_56_" class="st50" d="M148.5,326.2c-0.2,0.2-0.3,0.6-0.2,1l3.5,19.2c0.1,0.5,0.3,0.8,0.6,0.9c0.3,0.1,0.6,0,1-0.3
			l5.8-4.8l9.2-7.8c0.4-0.3,0.5-0.6,0.5-0.9c0-0.3-0.3-0.5-0.8-0.7l-18.4-6.6C149.1,326,148.7,326,148.5,326.2z"/>
		<path id="XMLID_55_" class="st50" d="M137.6,337.4c0.6-0.6,1.2-1.3,1.9-1.9c0.1-8.2,6-15.6,14.4-17.1c3-0.5,6-0.3,8.7,0.6
			c0.8-0.4,1.6-0.8,2.4-1.2c-3.5-1.6-7.4-2.1-11.4-1.4C143.5,318.3,136.6,327.5,137.6,337.4z"/>
		<path id="XMLID_54_" class="st53" d="M148.5,326.2c-0.2,0.2-0.3,0.6-0.2,1l0.1,0.6c0.6-0.5,1.3-0.9,1.9-1.4l-0.7-0.3
			C149.1,326,148.7,326,148.5,326.2z"/>
		
			<rect id="XMLID_53_" x="113.2" y="309.8" transform="matrix(-0.9843 0.1764 -0.1764 -0.9843 355.1615 588.7594)" class="st49" width="76.4" height="0.7"/>
	</g>
</g>
<g id="img-1">
	<g id="XMLID_313_">
		<g id="XMLID_315_">
			<g id="XMLID_509_">
				<polygon id="XMLID_51_" class="st54" points="158.1,354.5 249.7,366.7 260.6,279.6 169,267.5 				"/>
				<polygon id="XMLID_50_" class="st55" points="168,337.9 245.1,348.2 253,285.1 175.9,274.8 				"/>
				<polygon id="XMLID_49_" class="st56" points="250,287.1 175.6,277.2 175.9,274.8 253,285.1 245.1,348.2 242.4,347.8 				"/>
				<g id="XMLID_510_">
					<polygon id="XMLID_48_" class="st57" points="245.1,348.2 226.6,315.9 212.8,332.4 197.3,294.1 181.6,315.8 173.1,297.2 
						168,337.9 					"/>
					
						<ellipse id="XMLID_47_" transform="matrix(-0.8953 -0.4454 0.4454 -0.8953 308.0027 674.5034)" class="st57" cx="233.3" cy="301.1" rx="9.4" ry="9.2"/>
					<path id="XMLID_46_" class="st57" d="M198,289.6c0.7-1.3,2.3-2.2,3.9-1.9c0.6,0.1,1.1,0.3,1.6,0.6c1.1-2.1,3.5-3.4,6-3
						c2.2,0.3,3.9,1.7,4.7,3.5c0.6-0.2,1.3-0.3,2-0.2c2.2,0.3,3.8,2,4.1,4L198,289.6z"/>
					<path id="XMLID_45_" class="st57" d="M177.1,292.6c0.4-0.8,1.3-1.2,2.2-1.1c0.3,0,0.6,0.2,0.9,0.3c0.6-1.2,2-1.9,3.4-1.7
						c1.2,0.2,2.2,1,2.7,2c0.4-0.1,0.8-0.2,1.2-0.1c1.2,0.2,2.2,1.1,2.3,2.3L177.1,292.6z"/>
					<path id="XMLID_44_" class="st57" d="M209.7,310.7c0.4-0.8,1.3-1.2,2.2-1.1c0.3,0,0.6,0.2,0.9,0.3c0.6-1.2,2-1.9,3.4-1.7
						c1.2,0.2,2.2,1,2.7,2c0.4-0.1,0.8-0.2,1.2-0.1c1.2,0.2,2.2,1.1,2.3,2.3L209.7,310.7z"/>
				</g>
			</g>
			<g id="XMLID_316_">
				<polygon id="XMLID_43_" class="st54" points="179.6,385.4 269.8,405.4 286.3,319.7 196.1,299.7 				"/>
				<polygon id="XMLID_42_" class="st58" points="190.6,369.8 266.5,386.6 278.5,324.5 202.5,307.7 				"/>
				<polygon id="XMLID_41_" class="st56" points="275.3,326.2 202,310 202.5,307.7 278.5,324.5 266.5,386.6 263.8,386 				"/>
				<g id="XMLID_377_">
					<polygon id="XMLID_40_" class="st57" points="266.5,386.6 250.3,352.9 235.4,368.1 222.5,328.7 205.5,348.9 198.3,329.7 
						190.6,369.8 					"/>
					
						<ellipse id="XMLID_39_" transform="matrix(-0.7433 -0.6689 0.6689 -0.7433 222.8203 762.9451)" class="st57" cx="257.8" cy="338.7" rx="9.4" ry="9.1"/>
					<path id="XMLID_38_" class="st57" d="M223.5,324.2c0.8-1.3,2.4-1.9,4-1.6c0.6,0.1,1.1,0.4,1.5,0.7c1.3-2,3.7-3.1,6.1-2.5
						c2.1,0.5,3.7,2,4.4,3.9c0.6-0.1,1.3-0.2,2,0c2.1,0.5,3.7,2.3,3.8,4.4L223.5,324.2z"/>
					<path id="XMLID_37_" class="st57" d="M202.5,325.4c0.5-0.7,1.4-1.1,2.3-0.9c0.3,0.1,0.6,0.2,0.9,0.4c0.7-1.1,2.1-1.7,3.5-1.4
						c1.2,0.3,2.2,1.1,2.5,2.2c0.4-0.1,0.8-0.1,1.2,0c1.2,0.3,2.1,1.3,2.2,2.5L202.5,325.4z"/>
					<path id="XMLID_36_" class="st57" d="M233.8,346.2c0.5-0.7,1.4-1.1,2.3-0.9c0.3,0.1,0.6,0.2,0.9,0.4c0.7-1.1,2.1-1.7,3.5-1.4
						c1.2,0.3,2.2,1.1,2.5,2.2c0.4-0.1,0.8-0.1,1.2,0c1.2,0.3,2.1,1.3,2.2,2.5L233.8,346.2z"/>
				</g>
			</g>
		</g>
	</g>
</g>
<g id="file-1">
	<g id="XMLID_528_">
		<g id="XMLID_529_">
			<path id="XMLID_35_" class="st19" d="M138.9,309.5l54.1-11.8c1.1-0.2,2.2,0.4,2.4,1.4l16.3,75.1c0.8,3.5-1.7,7.1-5.4,7.9
				l-37.6,8.2c-8,1.7-15.8-3-17.5-10.5l-14.6-67.1C136.4,311.3,137.4,309.9,138.9,309.5z"/>
			<path id="XMLID_34_" class="st59" d="M136.8,310l57.2-12.4c0.6-0.1,1.2,0.2,1.3,0.8l16.6,76.2c0.7,3.4-1.6,6.7-5.2,7.5l-39.2,8.5
				c-7.3,1.6-14.4-2.7-15.9-9.6l-15.3-70.3C136.2,310.4,136.4,310.1,136.8,310z"/>
			<path id="XMLID_33_" class="st60" d="M141.9,308.9l65.8-14.3c0.6-0.1,1.1,0.1,1.2,0.6l16.7,76.7c0.7,3.3-2.2,6.7-6.6,7.6
				l-43.2,9.4c-9,2-17.5-1.9-19-8.7l-15.4-70.7C141.4,309.2,141.6,308.9,141.9,308.9z"/>
			<g id="XMLID_545_">
				<path id="XMLID_32_" class="st59" d="M167.7,390.6L167.7,390.6l53.9-11.7c6.2-1.3,10.3-6.6,9.2-11.7l-0.8-3.5l-54.5,11.9
					l0.8,3.5C177.4,383.9,173.6,389,167.7,390.6z"/>
			</g>
			<g id="XMLID_543_" class="st61">
				<path id="XMLID_31_" class="st19" d="M174,389.2L174,389.2l56.9-12.4c6.6-1.4,11-6.7,9.8-11.9l-0.8-3.5L182.4,374l0.8,3.5
					C184.3,382.5,180.2,387.6,174,389.2z"/>
			</g>
			<g id="XMLID_530_">
				<path id="XMLID_30_" class="st19" d="M211.6,357.6l-45.7,10c-0.3,0.1-0.6-0.1-0.7-0.3c0-0.2,0.2-0.5,0.5-0.5l45.7-10
					c0.3-0.1,0.6,0.1,0.7,0.3C212.1,357.3,211.9,357.5,211.6,357.6z"/>
				<path id="XMLID_29_" class="st19" d="M209.6,343.9L162,354.2c-0.3,0.1-0.6-0.1-0.7-0.3c0-0.2,0.2-0.5,0.5-0.5l47.5-10.3
					c0.3-0.1,0.6,0.1,0.7,0.3C210.1,343.6,209.9,343.8,209.6,343.9z"/>
				<path id="XMLID_28_" class="st19" d="M187.2,355.8l-24.3,5.3c-0.3,0.1-0.6-0.1-0.7-0.3c0-0.2,0.2-0.5,0.5-0.5L187,355
					c0.3-0.1,0.6,0.1,0.7,0.3C187.8,355.5,187.5,355.7,187.2,355.8z"/>
				<path id="XMLID_27_" class="st19" d="M185.4,356.2l-20.6,4.5c-0.3,0.1-0.6-0.1-0.7-0.3c0-0.2,0.2-0.5,0.5-0.5l20.6-4.5
					c0.3-0.1,0.6,0.1,0.7,0.3C185.9,355.9,185.7,356.1,185.4,356.2z"/>
				<path id="XMLID_26_" class="st19" d="M190.5,332.9l-31.3,6.8c-0.3,0.1-0.6-0.1-0.7-0.3c-0.1-0.2,0.2-0.5,0.5-0.5l31.3-6.8
					c0.3-0.1,0.6,0.1,0.7,0.3C191.1,332.6,190.8,332.8,190.5,332.9z"/>
				<path id="XMLID_25_" class="st19" d="M205,329.7l-9.5,2.1c-0.3,0.1-0.6-0.1-0.7-0.3c0-0.2,0.2-0.5,0.5-0.5l9.5-2.1
					c0.3-0.1,0.6,0.1,0.7,0.3C205.6,329.4,205.4,329.7,205,329.7z"/>
				<path id="XMLID_24_" class="st19" d="M207.9,336.2l-33.9,7.4c-0.3,0.1-0.6-0.1-0.7-0.3c-0.1-0.2,0.2-0.5,0.5-0.5l33.9-7.4
					c0.3-0.1,0.6,0.1,0.7,0.3C208.4,335.9,208.2,336.1,207.9,336.2z"/>
				<path id="XMLID_23_" class="st19" d="M170.7,344.3l-10.3,2.2c-0.3,0.1-0.6-0.1-0.7-0.3c0-0.2,0.2-0.5,0.5-0.5l10.3-2.2
					c0.3-0.1,0.6,0.1,0.7,0.3C171.2,344,171,344.2,170.7,344.3z"/>
				<path id="XMLID_22_" class="st19" d="M204.2,323.9l-45.7,10c-0.3,0.1-0.6-0.1-0.7-0.3c0-0.2,0.2-0.5,0.5-0.5l45.7-10
					c0.3-0.1,0.6,0.1,0.7,0.3C204.8,323.6,204.6,323.9,204.2,323.9z"/>
				<path id="XMLID_21_" class="st19" d="M201.3,310.5l-45.7,10c-0.3,0.1-0.6-0.1-0.7-0.3c0-0.2,0.2-0.5,0.5-0.5l45.7-10
					c0.3-0.1,0.6,0.1,0.7,0.3C201.8,310.1,201.6,310.4,201.3,310.5z"/>
				<path id="XMLID_20_" class="st19" d="M173.8,323.5l-17.3,3.8c-0.3,0.1-0.6-0.1-0.7-0.3c0-0.2,0.2-0.5,0.5-0.5l17.3-3.8
					c0.3-0.1,0.6,0.1,0.7,0.3C174.4,323.2,174.2,323.4,173.8,323.5z"/>
				<path id="XMLID_19_" class="st19" d="M202.4,317.3l-20.6,4.5c-0.3,0.1-0.6-0.1-0.7-0.3c0-0.2,0.2-0.5,0.5-0.5l20.6-4.5
					c0.3-0.1,0.6,0.1,0.7,0.3C203,316.9,202.7,317.2,202.4,317.3z"/>
			</g>
		</g>
	</g>
	<g id="XMLID_415_">
		<g id="XMLID_426_">
			<g id="XMLID_501_">
				<g id="XMLID_503_">
					<g id="XMLID_526_">
						<path id="XMLID_17_" class="st19" d="M89,319.6l52.7-30c1.1-0.6,2.4-0.3,2.9,0.7l40.7,71.4c1.9,3.4,0.5,7.8-3.2,9.9
							l-36.6,20.9c-7.8,4.4-17.4,2.2-21.5-4.9l-36.3-63.8C86.9,322.3,87.5,320.4,89,319.6z"/>
					</g>
					<path id="XMLID_16_" class="st59" d="M86.9,320.8l55.7-31.7c0.6-0.3,1.3-0.2,1.6,0.4l41.3,72.5c1.8,3.2,0.5,7.4-3,9.4
						l-38.2,21.7c-7.1,4.1-15.9,2-19.6-4.5l-38.1-66.9C86.4,321.4,86.6,321,86.9,320.8z"/>
					<path id="XMLID_15_" class="st60" d="M91.9,317.9l64-36.5c0.6-0.3,1.2-0.2,1.4,0.2l41.5,72.9c1.8,3.1-0.2,7.6-4.5,10l-42.1,24
						c-8.8,5-18.9,3.8-22.5-2.6l-38.3-67.2C91.5,318.4,91.6,318.1,91.9,317.9z"/>
					<g id="XMLID_522_">
						<path id="XMLID_14_" class="st59" d="M144.5,393L144.5,393l52.5-29.9c6-3.4,8.7-10.2,5.9-15.1l-1.9-3.4l-53,30.2l1.9,3.4
							C152.5,383,150.2,389.4,144.5,393z"/>
					</g>
					<g id="XMLID_520_" class="st61">
						<path id="XMLID_13_" class="st19" d="M150.6,389.5L150.6,389.5l55.4-31.6c6.4-3.6,9.3-10.5,6.5-15.4l-1.9-3.4l-56.1,31.9
							l1.9,3.4C159.2,379.2,156.6,385.8,150.6,389.5z"/>
					</g>
					<g id="XMLID_504_">
						<path id="XMLID_12_" class="st19" d="M179.8,344.6L135.3,370c-0.3,0.2-0.6,0.1-0.8-0.1c-0.1-0.2,0-0.5,0.3-0.7l44.5-25.4
							c0.3-0.2,0.6-0.1,0.8,0.1C180.3,344.2,180.1,344.5,179.8,344.6z"/>
						<path id="XMLID_11_" class="st19" d="M173.4,331.3l-46.3,26.4c-0.3,0.2-0.6,0.1-0.8-0.1c-0.1-0.2,0-0.5,0.3-0.7l46.3-26.4
							c0.3-0.2,0.6-0.1,0.8,0.1S173.8,331.1,173.4,331.3z"/>
						<path id="XMLID_10_" class="st19" d="M153.9,350.9l-23.6,13.5c-0.3,0.2-0.6,0.1-0.8-0.1c-0.1-0.2,0-0.5,0.3-0.7l23.6-13.5
							c0.3-0.2,0.6-0.1,0.8,0.1C154.4,350.4,154.2,350.7,153.9,350.9z"/>
						<path id="XMLID_9_" class="st19" d="M152.1,351.9L132,363.3c-0.3,0.2-0.6,0.1-0.8-0.1c-0.1-0.2,0-0.5,0.3-0.7l20.1-11.4
							c0.3-0.2,0.6-0.1,0.8,0.1C152.6,351.4,152.4,351.7,152.1,351.9z"/>
						<path id="XMLID_8_" class="st19" d="M150.1,326.4l-30.5,17.4c-0.3,0.2-0.6,0.1-0.8-0.1s0-0.5,0.3-0.7l30.5-17.4
							c0.3-0.2,0.6-0.1,0.8,0.1C150.6,325.9,150.4,326.2,150.1,326.4z"/>
						<path id="XMLID_7_" class="st19" d="M164.3,318.3l-9.3,5.3c-0.3,0.2-0.6,0.1-0.8-0.1c-0.1-0.2,0-0.5,0.3-0.7l9.3-5.3
							c0.3-0.2,0.6-0.1,0.8,0.1C164.7,317.8,164.6,318.1,164.3,318.3z"/>
						<path id="XMLID_6_" class="st19" d="M169.3,324l-33,18.8c-0.3,0.2-0.6,0.1-0.8-0.1c-0.1-0.2,0-0.5,0.3-0.7l33-18.8
							c0.3-0.2,0.6-0.1,0.8,0.1C169.7,323.5,169.6,323.8,169.3,324z"/>
						<path id="XMLID_5_" class="st19" d="M133,344.6l-10,5.7c-0.3,0.2-0.6,0.1-0.8-0.1c-0.1-0.2,0-0.5,0.3-0.7l10-5.7
							c0.3-0.2,0.6-0.1,0.8,0.1C133.5,344.1,133.4,344.4,133,344.6z"/>
						<path id="XMLID_4_" class="st19" d="M161.6,312.6L117.1,338c-0.3,0.2-0.6,0.1-0.8-0.1s0-0.5,0.3-0.7l44.5-25.4
							c0.3-0.2,0.6-0.1,0.8,0.1C162.1,312.2,161.9,312.5,161.6,312.6z"/>
						<path id="XMLID_3_" class="st19" d="M154.3,299.8l-44.5,25.4c-0.3,0.2-0.6,0.1-0.8-0.1c-0.1-0.2,0-0.5,0.3-0.7l44.5-25.4
							c0.3-0.2,0.6-0.1,0.8,0.1S154.6,299.7,154.3,299.8z"/>
						<path id="XMLID_2_" class="st19" d="M129.8,322.3l-16.8,9.6c-0.3,0.2-0.6,0.1-0.8-0.1c-0.1-0.2,0-0.5,0.3-0.7l16.8-9.6
							c0.3-0.2,0.6-0.1,0.8,0.1S130.1,322.1,129.8,322.3z"/>
						<path id="XMLID_1_" class="st19" d="M157.6,306.4l-20.1,11.4c-0.3,0.2-0.6,0.1-0.8-0.1c-0.1-0.2,0-0.5,0.3-0.7l20.1-11.4
							c0.3-0.2,0.6-0.1,0.8,0.1C158.1,305.9,157.9,306.3,157.6,306.4z"/>
					</g>
				</g>
			</g>
		</g>
	</g>
</g>
<g id="folder-1">
	<g id="XMLID_52_">
		<g id="XMLID_106_">
			<path id="XMLID_71_" class="st62" d="M138.8,301.3l34.8-11.3c2.6-0.9,6.2,0.1,7.9,2.1l3.8,4.6l38.3-12.7c2.8-0.9,5.7,0.5,6.6,3.1
				l14.3,49.7c0.8,2.5-0.6,5.3-3.2,6.2L163.6,369c-2.6,0.9-5.4-0.5-6.3-3l-22-58.2C134.5,305.2,136,302.3,138.8,301.3z"/>
			<polygon id="XMLID_70_" class="st19" points="234.1,309 153.4,342.7 142.6,319.1 223.3,285.3 			"/>
			<path id="XMLID_69_" class="st63" d="M228.7,290.7l-36.7,12.7c-2.8,0.9-5.3,3.7-5.6,6.2l-0.6,5.5l-40.6,13.8
				c-2.9,1-4.6,3.7-3.8,6.1l17.1,43.2c0.8,2.3,3.7,3.4,6.4,2.4l82.4-27.7c2.8-0.9,4.4-3.6,3.7-5.8l-15.5-53.8
				C234.6,290.8,231.6,289.7,228.7,290.7z"/>
			<path id="XMLID_68_" class="st62" d="M228.7,290.7l-3.6,1.2l14.7,51.1c0.8,2.3-0.9,4.9-3.7,5.8l-78.8,26.5l1.1,2.8
				c0.8,2.3,3.7,3.4,6.4,2.4l82.4-27.7c2.8-0.9,4.4-3.6,3.7-5.8l-15.5-53.8C234.6,290.8,231.6,289.7,228.7,290.7z"/>
		</g>
	</g>
</g>
<g id="folder-2">
	<g id="XMLID_52_">
		<g id="XMLID_106_">
			<path id="XMLID_71_" class="st62" d="M138.8,301.3l34.8-11.3c2.6-0.9,6.2,0.1,7.9,2.1l3.8,4.6l38.3-12.7c2.8-0.9,5.7,0.5,6.6,3.1
				l14.3,49.7c0.8,2.5-0.6,5.3-3.2,6.2L163.6,369c-2.6,0.9-5.4-0.5-6.3-3l-22-58.2C134.5,305.2,136,302.3,138.8,301.3z"/>
			<polygon id="XMLID_70_" class="st19" points="234.1,309 153.4,342.7 142.6,319.1 223.3,285.3 			"/>
			<path id="XMLID_69_" class="st63" d="M228.7,290.7l-36.7,12.7c-2.8,0.9-5.3,3.7-5.6,6.2l-0.6,5.5l-40.6,13.8
				c-2.9,1-4.6,3.7-3.8,6.1l17.1,43.2c0.8,2.3,3.7,3.4,6.4,2.4l82.4-27.7c2.8-0.9,4.4-3.6,3.7-5.8l-15.5-53.8
				C234.6,290.8,231.6,289.7,228.7,290.7z"/>
			<path id="XMLID_68_" class="st62" d="M228.7,290.7l-3.6,1.2l14.7,51.1c0.8,2.3-0.9,4.9-3.7,5.8l-78.8,26.5l1.1,2.8
				c0.8,2.3,3.7,3.4,6.4,2.4l82.4-27.7c2.8-0.9,4.4-3.6,3.7-5.8l-15.5-53.8C234.6,290.8,231.6,289.7,228.7,290.7z"/>
		</g>
	</g>
</g>
<g id="video-2">
	<g id="XMLID_107_">
		<path id="XMLID_67_" class="st48" d="M101.5,316.4c-0.3-1.9,0.9-3.6,2.8-4l95.7-17.2c1.9-0.3,3.6,0.9,4,2.8l11.7,65.2
			c0.3,1.9-0.9,3.6-2.8,4l-95.7,17.2c-1.9,0.3-3.6-0.9-4-2.8L101.5,316.4z"/>
		
			<rect id="XMLID_66_" x="122.6" y="361.9" transform="matrix(-0.9843 0.1764 -0.1764 -0.9843 384.32 690.7349)" class="st49" width="77.8" height="1.1"/>
		
			<rect id="XMLID_65_" x="179.8" y="359.6" transform="matrix(-0.9843 0.1764 -0.1764 -0.9843 422.1681 690.4309)" class="st49" width="1.1" height="8.7"/>
		
			<rect id="XMLID_64_" x="143.7" y="366.1" transform="matrix(-0.9843 0.1764 -0.1764 -0.9843 351.554 709.7039)" class="st49" width="1.1" height="8.7"/>
		<path id="XMLID_505_" class="st49" d="M153.4,316.1c-10.8,1.9-18,12.2-16,22.9c1.9,10.7,12.2,17.9,23,15.9
			c10.8-1.9,17.9-12.2,16-22.9C174.5,321.3,164.2,314.2,153.4,316.1z M159.9,352.4c-9.3,1.7-18.2-4.5-19.9-13.8
			c-1.7-9.3,4.5-18.2,13.9-19.8c9.3-1.7,18.2,4.5,19.9,13.8C175.5,341.8,169.2,350.7,159.9,352.4z"/>
		<path id="XMLID_502_" class="st50" d="M137.8,339c1.9,10.5,12,17.5,22.6,15.6c10.6-1.9,17.6-12,15.7-22.5
			c-1.9-10.5-12-17.5-22.6-15.6C143,318.4,135.9,328.5,137.8,339z M139.7,338.7c-1.7-9.5,4.7-18.6,14.2-20.3
			c9.5-1.7,18.6,4.6,20.3,14.1c1.7,9.5-4.7,18.5-14.2,20.3S141.4,348.1,139.7,338.7z"/>
		<path id="XMLID_59_" class="st51" d="M200.4,297.8l-95.7,17.2c-0.4,0.1-0.7,0.5-0.7,1l11.7,65.2c0.1,0.3,0.3,0.6,0.6,0.6
			c1.9-15.9,9.2-30.8,20.3-43c-1.7-10.9,5.7-21.3,16.7-23.3c4.6-0.8,9.1,0,13,1.9c7.1-3.2,14.8-5.6,22.9-7.1
			c4.7-0.8,9.4-1.3,14.1-1.5l-1.9-10.4C201.3,298,200.9,297.7,200.4,297.8z"/>
		<path id="XMLID_58_" class="st52" d="M147.2,327.4c-0.1-0.8,0.1-1.6,0.6-2s1.3-0.5,2.1-0.2l1.7,0.6c3.1-2.2,6.4-4.1,9.8-5.9
			c-2.3-0.6-4.8-0.8-7.3-0.4c-7.7,1.4-13.1,7.9-13.5,15.3c2.2-2.1,4.5-4.1,6.9-6C147.3,327.9,147.2,327.4,147.2,327.4z"/>
		<path id="XMLID_57_" class="st49" d="M168.5,334.6c1-0.8,0.8-1.8-0.4-2.2l-7.1-2.5c-1.2-0.4-3.1-1.1-4.3-1.5l-7.1-2.5
			c-1.2-0.4-1.9,0.2-1.7,1.5l1.3,7.4c0.2,1.2,0.6,3.2,0.8,4.4l1.3,7.4c0.2,1.2,1.2,1.6,2.1,0.8l5.8-4.8c1-0.8,2.5-2.1,3.5-2.9
			L168.5,334.6z"/>
		<path id="XMLID_56_" class="st50" d="M148.5,326.2c-0.2,0.2-0.3,0.6-0.2,1l3.5,19.2c0.1,0.5,0.3,0.8,0.6,0.9c0.3,0.1,0.6,0,1-0.3
			l5.8-4.8l9.2-7.8c0.4-0.3,0.5-0.6,0.5-0.9c0-0.3-0.3-0.5-0.8-0.7l-18.4-6.6C149.1,326,148.7,326,148.5,326.2z"/>
		<path id="XMLID_55_" class="st50" d="M137.6,337.4c0.6-0.6,1.2-1.3,1.9-1.9c0.1-8.2,6-15.6,14.4-17.1c3-0.5,6-0.3,8.7,0.6
			c0.8-0.4,1.6-0.8,2.4-1.2c-3.5-1.6-7.4-2.1-11.4-1.4C143.5,318.3,136.6,327.5,137.6,337.4z"/>
		<path id="XMLID_54_" class="st53" d="M148.5,326.2c-0.2,0.2-0.3,0.6-0.2,1l0.1,0.6c0.6-0.5,1.3-0.9,1.9-1.4l-0.7-0.3
			C149.1,326,148.7,326,148.5,326.2z"/>
		
			<rect id="XMLID_53_" x="113.2" y="309.8" transform="matrix(-0.9843 0.1764 -0.1764 -0.9843 355.1615 588.7594)" class="st49" width="76.4" height="0.7"/>
	</g>
</g>
</svg>
