<?xml version="1.0" encoding="utf-8"?>
<!-- Generator: Adobe Illustrator 19.0.0, SVG Export Plug-In . SVG Version: 6.00 Build 0)  -->
<svg version="1.1" id="Layer_1" xmlns="http://www.w3.org/2000/svg" xmlns:xlink="http://www.w3.org/1999/xlink" x="0px" y="0px"
	 viewBox="0 0 834.1 822.1" style="enable-background:new 0 0 834.1 822.1;" xml:space="preserve">
<style type="text/css">
	.st0{fill:#02254D;}
	.st1{opacity:0.11;fill:#929497;enable-background:new    ;}
	.st2{fill:#461400;}
	.st3{fill:#752B00;}
	.st4{fill:#757779;}
	.st5{fill:#D0D2D3;}
	.st6{fill:#FF6200;}
	.st7{fill:#FFA055;}
	.st8{fill:#D55000;}
	.st9{fill:#AF4200;}
	.st10{fill:#694809;}
	.st11{fill:#231F20;}
	.st12{fill:#FFFFFF;}
	.st13{fill:#695CA2;}
	.st14{fill:#7C5CA2;}
	.st15{opacity:0.48;}
	.st16{fill:#FEA311;}
	.st17{fill:#FFCA00;}
	.st18{fill:#FFFFFB;}
	.st19{fill:#84BDF1;}
	.st20{opacity:0.26;fill:#33C7CA;enable-background:new    ;}
	.st21{opacity:0.58;fill:#FFFFFB;enable-background:new    ;}
	.st22{fill:#9EC700;}
	.st23{fill:#008FFF;}
	.st24{fill:#3F0101;}
	.st25{fill:#003D6E;}
	.st26{opacity:0.4;fill:#00AEFF;enable-background:new    ;}
	.st27{opacity:0.4;fill:#BCBCBC;enable-background:new    ;}
	.st28{opacity:0.4;fill:#FF9F9F;enable-background:new    ;}
		#lock_head{
		animation: lock_head-anim 4s infinite;
		animation-timing-function: cubic-bezier(0.98, 0.02, 0.25, 1);
	}

@keyframes lock_head-anim{
	0%, 10%{
		transform: translate(0px, 0px);
	}
	30%{
		transform: translate(0px, -50px);
	}
	70%{
		transform: translate(0px, -50px);
	}
	100%{
		transform: translate(0px, 0px);
	}

	
}
</style>
<path id="bg" class="st0" d="M782.5,809.6H55.2c-17.1,0-31-13.9-31-31V51.3c0-17.1,13.9-31,31-31h727.3c17.1,0,31,13.9,31,31v727.3
	C813.5,795.7,799.6,809.6,782.5,809.6z"/>
<g id="main_lock">
	<path id="XMLID_3037_" class="st1" d="M515.6,82.7c-18.6-6.8-39.1-10-60.6-8.7l-2.2,0.1c-85.3,4.9-157,75.5-159.9,157.5l-2,59.1
		c-18.6,4.3-33,20.2-33.8,38.5l-10.5,274.2c-0.2,4.3,0.5,8.4,1.8,12.2c-0.8,21.1,43.7,83.7,67.2,83.5l338.2-2.3
		c13-0.1,24.4-5.7,32.1-14.2c0.4-0.4,0.7-0.8,1.1-1.2c1.1-1.3,2.1-2.7,3-4.1c0.7-1.1,1.4-2.3,2-3.5c0.4-0.8,0.8-1.5,1.1-2.3
		c0.8-1.9,1.4-3.8,1.9-5.8c0.1-0.5,0.2-0.9,0.3-1.4c0.5-2.3,0.7-4.7,0.7-7.1l-1.8-283.5c-0.1-18.8-32.5-70.8-55.8-84.1l-0.2-64.5
		C638.1,151.8,585.4,93.5,515.6,82.7z M561.7,220l-0.2,59.6l-193.4,7.3l1.4-50.2c1.6-57,51.3-105.9,110.7-109l2.2-0.1
		c6.1-0.3,12.1,0,17.9,0.6C536.6,143.1,561.8,178,561.7,220z"/>
	<g id="XMLID_3034_">
		<path id="XMLID_3036_" class="st2" d="M659.7,595.3c0.1,21.8-18.8,59.6-42.2,59.7l-325.4,5.2c-23.4,0.2-55.6-19.8-54.8-40.9
			l60.1-228.7c0.8-21.1,19.7-38.8,42.3-39.7L617,290.1c22.5-0.8,40.5,51.1,40.7,72.9L659.7,595.3z"/>
		<path id="XMLID_3035_" class="st3" d="M617,290.1l-213,46.7L640.9,642c9.9-7.3,18.9-34.1,18.8-46.7L657.6,363
			C657.5,341.2,639.5,289.3,617,290.1z"/>
	</g>
	<g id="lock">
		<g id="lock_head">
			<path id="XMLID_3033_" class="st4" d="M360.5,292.3c0.1-13-0.2-24.8-0.2-24.8c1.6-57,51.3-105.9,110.7-109l2.2-0.1
				c59.4-3.2,107.6,41.5,107.4,99.6l-0.2,65.6c0,10.9-0.5,32.5-2.2,46.4l50.6,21.1c2.1-17.7,0.4-58.5,0.4-69.3l-0.2-65.9
				c-0.2-84.2-69.8-148.7-155.2-143.9l-2.2,0.1c-85.3,4.9-157,75.5-159.9,157.5l-0.2-15.9c-0.3,10.5,0.5,30.6,2.4,40.4L360.5,292.3z
				"/>
			<path id="XMLID_3031_" class="st5" d="M333.4,293.1c-0.3-8.9-1.4-27.8-1.1-38.5l-0.1,5.7c1.6-57,51.3-105.9,110.7-109l2.2-0.1
				c59.4-3.2,107.6,41.5,107.4,99.6l-0.2,65.6c0,10.9,0,45.7-3.2,61.6l50.7,7.5c-0.4-33.9,1.3-60.1,1.3-70.9l-0.2-65.9
				c-0.2-84.2-69.8-148.7-155.2-143.9l-2.2,0.1c-85.3,4.9-157,75.5-159.9,157.5l-0.2-5.9c-0.3,10.5-0.8,25.6-0.6,38.4L333.4,293.1z"
				/>
		</g>
		<path id="XMLID_3029_" class="st6" d="M633.4,603.1c0.1,21.8-18.8,39.6-42.2,39.7l-314.7,2.1c-23.5,0.2-41.8-16.8-41-37.8
			l10.5-274.2c0.8-21.1,19.7-38.8,42.3-39.7l302.4-11.4c22.5-0.8,40.9,16.1,41.1,37.9L633.4,603.1z"/>
		<path id="XMLID_3028_" class="st7" d="M438.2,373.2c16.6,23,39.7,41.8,65.7,55.4c24.4,12.8,55.5,23.5,84.1,22.7l-0.2-107.3
			c0-17.9-15.2-31.8-33.8-31.1l-137.3,4.8C419.9,337.6,426.2,356.5,438.2,373.2z"/>
		<path id="XMLID_3027_" class="st8" d="M620.9,527.4c-61.5,13.5-131.3,0.1-182.2-32.7c-58.4-37.6-87-101.1-96.7-165.3
			c-1.8-12.1-3-25-3.2-38.1l-50.8,1.9c-22.5,0.8-41.5,18.6-42.3,39.7l-10.5,274.2c-0.8,21.1,17.6,38,41,37.8l314.7-2.1
			c23.5-0.2,42.3-17.9,42.2-39.7l-0.5-78.7C628.9,525.5,624.9,526.5,620.9,527.4z"/>
		<path id="XMLID_3026_" class="st9" d="M519.1,621.4c-62.2,8.9-133.8-1-187.2-30.1c-27.2-14.8-45.3-35.2-53-63.5
			c-8.5-31.6-8.1-64.8-7-97.6c1-29.3,3.3-59.3,15.8-87.4c9.4-21.1,25.3-38,44.6-51.3l-44.1,1.7c-22.5,0.8-41.5,18.6-42.3,39.7
			l-10.5,274.2c-0.8,21.1,17.6,38,41,37.8l314.7-2.1c23.5-0.2,42.3-17.9,42.2-39.7l-0.2-33.2C601.8,596.9,562.2,615.2,519.1,621.4z"
			/>
		<g id="XMLID_3023_">
			<path id="XMLID_3025_" class="st10" d="M475.8,526.9c-0.2,18.4-16.5,33.6-36.4,33.8l-8.6,0.1c-19.9,0.3-35.8-14.3-35.4-32.6
				l1.7-86.7c0.4-18.3,16.5-33.6,36.1-34.1l8.4-0.2c19.6-0.5,35.3,14,35.1,32.4L475.8,526.9z"/>
			<path id="XMLID_3024_" class="st11" d="M445.8,487.4l0.6-41.8c0.1-4.9-4.1-8.8-9.4-8.7c-5.2,0.1-9.6,4.2-9.7,9.1l-0.7,41.7
				c-8.8,3.6-15,11.8-15.2,21.1c-0.2,12.5,10.5,22.4,24.1,22.2c13.5-0.2,24.6-10.5,24.8-23.1C460.5,498.6,454.5,490.7,445.8,487.4z"
				/>
		</g>
	</g>
</g>
<g id="files">
	<g id="XMLID_3123_">
		<g id="XMLID_3124_">
			<path id="XMLID_3144_" class="st12" d="M551.7,642.9h83.4c1.7,0,3,1.3,3,2.9v115.6c0,5.5-4.7,9.9-10.5,9.9h-57.9
				c-12.4,0-22.4-9.4-22.4-21V647C547.4,644.7,549.3,642.9,551.7,642.9z"/>
			<path id="XMLID_3143_" class="st13" d="M548.4,642.9h88.1c0.9,0,1.6,0.7,1.6,1.5v117.4c0,5.2-4.5,9.4-10,9.4h-60.4
				c-11.2,0-20.4-8.6-20.4-19.2V643.9C547.4,643.4,547.8,642.9,548.4,642.9z"/>
			<path id="XMLID_3142_" class="st14" d="M556.3,642.9h101.3c0.9,0,1.6,0.5,1.6,1.2v118.1c0,5-5.4,9.1-12.1,9.1h-66.5
				c-13.9,0-25.1-8.4-25.1-18.9V643.6C555.4,643.2,555.8,642.9,556.3,642.9z"/>
			<g id="XMLID_3140_">
				<path id="XMLID_3141_" class="st13" d="M568.1,771.3L568.1,771.3l83,0c9.6,0,17.3-6.4,17.3-14.3v-5.4h-83.9v5.4
					C584.4,764.6,577.2,770.9,568.1,771.3z"/>
			</g>
			<g id="XMLID_3138_" class="st15">
				<path id="XMLID_3139_" class="st12" d="M577.8,771.3L577.8,771.3l87.7,0c10.1,0,18.3-6.4,18.3-14.3v-5.4H595v5.4
					C595,764.6,587.4,770.9,577.8,771.3z"/>
			</g>
			<g id="XMLID_3125_">
				<path id="XMLID_3137_" class="st12" d="M643.1,736.8h-70.4c-0.5,0-0.9-0.3-0.9-0.6s0.4-0.6,0.9-0.6h70.4c0.5,0,0.9,0.3,0.9,0.6
					C644,736.5,643.6,736.8,643.1,736.8z"/>
				<path id="XMLID_3136_" class="st12" d="M644.6,716h-73.2c-0.5,0-0.9-0.3-0.9-0.6s0.4-0.6,0.9-0.6h73.2c0.5,0,0.9,0.3,0.9,0.6
					S645.1,716,644.6,716z"/>
				<path id="XMLID_3135_" class="st12" d="M607.9,726.4h-37.4c-0.5,0-0.9-0.3-0.9-0.6c0-0.3,0.4-0.6,0.9-0.6h37.4
					c0.5,0,0.9,0.3,0.9,0.6C608.8,726.1,608.4,726.4,607.9,726.4z"/>
				<path id="XMLID_3134_" class="st12" d="M605.1,726.4h-31.7c-0.5,0-0.9-0.3-0.9-0.6c0-0.3,0.4-0.6,0.9-0.6h31.7
					c0.5,0,0.9,0.3,0.9,0.6C606,726.1,605.6,726.4,605.1,726.4z"/>
				<path id="XMLID_3133_" class="st12" d="M620.1,693.8h-48.2c-0.5,0-0.9-0.3-0.9-0.6s0.4-0.6,0.9-0.6h48.2c0.5,0,0.9,0.3,0.9,0.6
					S620.6,693.8,620.1,693.8z"/>
				<path id="XMLID_3132_" class="st12" d="M642.4,693.8h-14.7c-0.5,0-0.9-0.3-0.9-0.6s0.4-0.6,0.9-0.6h14.7c0.5,0,0.9,0.3,0.9,0.6
					S642.9,693.8,642.4,693.8z"/>
				<path id="XMLID_3131_" class="st12" d="M644.6,704.2h-52.2c-0.5,0-0.9-0.3-0.9-0.6c0-0.3,0.4-0.6,0.9-0.6h52.2
					c0.5,0,0.9,0.3,0.9,0.6C645.5,703.9,645.1,704.2,644.6,704.2z"/>
				<path id="XMLID_3130_" class="st12" d="M587.3,704.2h-15.9c-0.5,0-0.9-0.3-0.9-0.6c0-0.3,0.4-0.6,0.9-0.6h15.9
					c0.5,0,0.9,0.3,0.9,0.6C588.2,703.9,587.8,704.2,587.3,704.2z"/>
				<path id="XMLID_3129_" class="st12" d="M643.1,685h-70.4c-0.5,0-0.9-0.3-0.9-0.6c0-0.3,0.4-0.6,0.9-0.6h70.4
					c0.5,0,0.9,0.3,0.9,0.6C644,684.7,643.6,685,643.1,685z"/>
				<path id="XMLID_3128_" class="st12" d="M643.1,664.2h-70.4c-0.5,0-0.9-0.3-0.9-0.6s0.4-0.6,0.9-0.6h70.4c0.5,0,0.9,0.3,0.9,0.6
					S643.6,664.2,643.1,664.2z"/>
				<path id="XMLID_3127_" class="st12" d="M598.6,674.6h-26.7c-0.5,0-0.9-0.3-0.9-0.6s0.4-0.6,0.9-0.6h26.7c0.5,0,0.9,0.3,0.9,0.6
					C599.4,674.3,599.1,674.6,598.6,674.6z"/>
				<path id="XMLID_3126_" class="st12" d="M642.6,674.6h-31.7c-0.5,0-0.9-0.3-0.9-0.6s0.4-0.6,0.9-0.6h31.7c0.5,0,0.9,0.3,0.9,0.6
					C643.5,674.3,643.1,674.6,642.6,674.6z"/>
			</g>
		</g>
	</g>
	<g id="XMLID_3097_">
		<g id="XMLID_3098_">
			<g id="XMLID_3099_">
				<g id="XMLID_3100_">
					<g id="XMLID_3120_">
						<path id="XMLID_3121_" class="st12" d="M475,641.7l87.1-27.3c1.8-0.5,3.6,0.3,4.1,1.9l37,118.1c1.7,5.6-1.8,11.6-7.8,13.5
							l-60.5,18.9c-12.9,4-26.4-2.3-30.1-14.2l-33-105.4C471.1,645,472.6,642.5,475,641.7z"/>
					</g>
					<path id="XMLID_3119_" class="st13" d="M471.7,642.8l92-28.8c0.9-0.3,1.9,0.2,2.2,1l37.5,119.9c1.7,5.3-1.7,11.1-7.4,12.9
						l-63.1,19.8c-11.8,3.7-24-2.1-27.4-12.9l-34.6-110.5C470.7,643.6,471,643,471.7,642.8z"/>
					<path id="XMLID_3118_" class="st14" d="M479.9,640.2l105.8-33.1c0.9-0.3,1.9,0,2.1,0.7l37.8,120.5c1.6,5.1-2.8,11.1-9.8,13.3
						l-69.5,21.8c-14.5,4.5-29-0.4-32.3-11l-34.8-111.1C479.1,640.8,479.4,640.4,479.9,640.2z"/>
					<g id="XMLID_3116_">
						<path id="XMLID_3117_" class="st13" d="M533.2,767.4L533.2,767.4l86.7-27.1c10-3.1,16-12.2,13.5-20.3l-1.7-5.5L544,741.9
							l1.7,5.5C548.2,755.3,542.6,764,533.2,767.4z"/>
					</g>
					<g id="XMLID_3114_" class="st15">
						<path id="XMLID_3115_" class="st12" d="M543.3,764.2L543.3,764.2l91.6-28.7c10.5-3.3,17-12.5,14.5-20.6l-1.7-5.5l-92.7,29
							l1.7,5.5C559.3,751.8,553.3,760.7,543.3,764.2z"/>
					</g>
					<g id="XMLID_3101_">
						<path id="XMLID_3113_" class="st12" d="M600.6,707.6l-73.6,23c-0.5,0.2-1,0-1.1-0.3c-0.1-0.3,0.2-0.8,0.7-0.9l73.6-23
							c0.5-0.2,1,0,1.1,0.3C601.4,707,601.1,707.5,600.6,707.6z"/>
						<path id="XMLID_3112_" class="st12" d="M595.5,685.9l-76.5,24c-0.5,0.2-1,0-1.1-0.3c-0.1-0.3,0.2-0.8,0.7-0.9l76.5-24
							c0.5-0.2,1,0,1.1,0.3C596.3,685.4,596,685.8,595.5,685.9z"/>
						<path id="XMLID_3111_" class="st12" d="M560.5,708.5l-39.1,12.2c-0.5,0.2-1,0-1.1-0.3c-0.1-0.3,0.2-0.8,0.7-0.9l39.1-12.2
							c0.5-0.2,1,0,1.1,0.3C561.3,708,561,708.4,560.5,708.5z"/>
						<path id="XMLID_3110_" class="st12" d="M557.5,709.4l-33.2,10.4c-0.5,0.2-1,0-1.1-0.3c-0.1-0.3,0.2-0.8,0.7-0.9l33.2-10.4
							c0.5-0.2,1,0,1.1,0.3C558.4,708.9,558,709.3,557.5,709.4z"/>
						<path id="XMLID_3109_" class="st12" d="M562.8,671.3L512.4,687c-0.5,0.2-1,0-1.1-0.3s0.2-0.8,0.7-0.9l50.4-15.8
							c0.5-0.2,1,0,1.1,0.3C563.6,670.7,563.3,671.1,562.8,671.3z"/>
						<path id="XMLID_3108_" class="st12" d="M586.1,664l-15.3,4.8c-0.5,0.2-1,0-1.1-0.3s0.2-0.8,0.7-0.9l15.3-4.8
							c0.5-0.2,1,0,1.1,0.3C587,663.4,586.7,663.8,586.1,664z"/>
						<path id="XMLID_3107_" class="st12" d="M591.7,673.8l-54.5,17.1c-0.5,0.2-1,0-1.1-0.3c-0.1-0.3,0.2-0.8,0.7-0.9l54.5-17.1
							c0.5-0.2,1,0,1.1,0.3C592.6,673.3,592.2,673.7,591.7,673.8z"/>
						<path id="XMLID_3106_" class="st12" d="M531.8,692.6l-16.6,5.2c-0.5,0.2-1,0-1.1-0.3s0.2-0.8,0.7-0.9l16.6-5.2
							c0.5-0.2,1,0,1.1,0.3C532.6,692,532.3,692.4,531.8,692.6z"/>
						<path id="XMLID_3105_" class="st12" d="M584.1,654.8l-73.6,23c-0.5,0.2-1,0-1.1-0.3c-0.1-0.3,0.2-0.8,0.7-0.9l73.6-23
							c0.5-0.2,1,0,1.1,0.3S584.6,654.6,584.1,654.8z"/>
						<path id="XMLID_3104_" class="st12" d="M577.4,633.5l-73.6,23c-0.5,0.2-1,0-1.1-0.3s0.2-0.8,0.7-0.9l73.6-23
							c0.5-0.2,1,0,1.1,0.3C578.2,633,577.9,633.4,577.4,633.5z"/>
						<path id="XMLID_3103_" class="st12" d="M534.2,658.7l-27.8,8.7c-0.5,0.2-1,0-1.1-0.3s0.2-0.8,0.7-0.9l27.8-8.7
							c0.5-0.2,1,0,1.1,0.3C535,658.2,534.7,658.6,534.2,658.7z"/>
						<path id="XMLID_3102_" class="st12" d="M580.2,644.3L547,654.7c-0.5,0.2-1,0-1.1-0.3c-0.1-0.3,0.2-0.8,0.7-0.9l33.2-10.4
							c0.5-0.2,1,0,1.1,0.3S580.7,644.2,580.2,644.3z"/>
					</g>
				</g>
			</g>
		</g>
	</g>
</g>
<g id="folder">
	<g id="XMLID_3014_">
		<g id="XMLID_3015_">
			<path id="XMLID_3019_" class="st16" d="M119.4,357.5l67-16c5-1.3,11.6,1.1,14.5,5.2l6.5,9.1l73.7-18.1c5.3-1.3,10.6,1.8,11.9,6.9
				l19.3,95.3c1.2,4.9-1.9,9.9-6.9,11.1l-149.5,37.2c-5,1.3-10.2-1.7-11.4-6.6l-32.5-112.5C110.8,364.1,114.1,358.8,119.4,357.5z"/>
			<polygon id="XMLID_3018_" class="st12" points="297.2,386.2 140.7,437.4 123.9,391.4 280.4,340.2 			"/>
			<path id="XMLID_3017_" class="st17" d="M289.7,351l-70.8,18.3c-5.4,1.3-10.5,6.2-11.4,10.7l-2,10.2l-78.2,19.7
				c-5.6,1.4-9.3,6.3-8.1,10.9l25.6,83.7c1.1,4.4,6.4,6.9,11.7,5.5l158.8-39.6c5.4-1.3,8.8-6,7.7-10.4l-21-103.3
				C300.8,352.2,295.3,349.6,289.7,351z"/>
			<path id="XMLID_3016_" class="st16" d="M289.7,351l-7,1.8l19.9,98.1c1.1,4.4-2.4,9.1-7.7,10.4L143,499.1l1.7,5.5
				c1.1,4.4,6.4,6.9,11.7,5.5l158.8-39.6c5.4-1.3,8.8-6,7.7-10.4l-21-103.3C300.8,352.2,295.3,349.6,289.7,351z"/>
		</g>
	</g>
</g>
<g id="images">
	<g id="XMLID_2990_">
		<g id="XMLID_2991_">
			<g id="XMLID_3002_">
				<polygon id="XMLID_3011_" class="st18" points="342,729.3 212,684.9 255.2,561.7 385.2,606.2 				"/>
				<polygon id="XMLID_3010_" class="st19" points="339.7,700.7 230.3,663.2 261.6,573.9 371,611.4 				"/>
				<polygon id="XMLID_3009_" class="st20" points="264.2,578.7 369.8,614.8 371,611.4 261.6,573.9 230.3,663.2 234.1,664.5 				"/>
				<g id="XMLID_3003_">
					<polygon id="XMLID_3008_" class="st21" points="230.3,663.2 276.3,632.5 283.8,663.6 329.7,622.9 336.3,662.2 359.9,643.1 
						339.7,700.7 					"/>
					<ellipse id="XMLID_3007_" class="st21" cx="277.2" cy="608.4" rx="13.9" ry="13.7"/>
					<path id="XMLID_3006_" class="st21" d="M331.9,616.4c-0.1-2.3-1.6-4.4-3.9-5.2c-0.8-0.3-1.7-0.4-2.5-0.3c-0.1-3.5-2.4-6.8-6-8
						c-3.1-1-6.3-0.3-8.6,1.6c-0.7-0.7-1.6-1.3-2.6-1.6c-3.1-1.1-6.4,0.1-8.1,2.6L331.9,616.4z"/>
					<path id="XMLID_3005_" class="st21" d="M357.7,634.2c-0.1-1.3-0.9-2.5-2.2-2.9c-0.5-0.2-1-0.2-1.4-0.2c-0.1-2-1.4-3.9-3.4-4.6
						c-1.7-0.6-3.6-0.2-4.9,0.9c-0.4-0.4-0.9-0.7-1.5-0.9c-1.8-0.6-3.6,0.1-4.6,1.5L357.7,634.2z"/>
					<path id="XMLID_3004_" class="st21" d="M302.3,636.7c-0.1-1.3-0.9-2.5-2.2-2.9c-0.5-0.2-1-0.2-1.4-0.2c-0.1-2-1.4-3.9-3.4-4.6
						c-1.7-0.6-3.6-0.2-4.9,0.9c-0.4-0.4-0.9-0.7-1.5-0.9c-1.8-0.6-3.6,0.1-4.6,1.5L302.3,636.7z"/>
				</g>
			</g>
			<g id="XMLID_2992_">
				<polygon id="XMLID_3001_" class="st18" points="292.8,756.2 159.5,723 194.4,598 327.7,631.2 				"/>
				<polygon id="XMLID_3000_" class="st22" points="288.6,728.1 176.4,700.2 201.6,609.6 313.9,637.5 				"/>
				<polygon id="XMLID_2999_" class="st20" points="204.6,614 312.9,641 313.9,637.5 201.6,609.6 176.4,700.2 180.3,701.2 				"/>
				<g id="XMLID_2993_">
					<polygon id="XMLID_2998_" class="st21" points="176.4,700.2 220.4,666.1 230.1,696.2 273.3,652.2 282.6,690.5 304.9,669.6 
						288.6,728.1 					"/>
					
						<ellipse id="XMLID_2997_" transform="matrix(0.9635 -0.2678 0.2678 0.9635 -163.9563 82.2803)" class="st21" cx="219.7" cy="642.2" rx="14" ry="13.6"/>
					<path id="XMLID_2996_" class="st21" d="M275,645.7c-0.3-2.2-1.9-4.2-4.3-4.8c-0.8-0.2-1.7-0.2-2.5-0.1
						c-0.4-3.5-2.9-6.5-6.5-7.4c-3.1-0.8-6.3,0.2-8.5,2.2c-0.8-0.6-1.7-1.1-2.7-1.4c-3.2-0.8-6.4,0.6-8,3.3L275,645.7z"/>
					<path id="XMLID_2995_" class="st21" d="M302.1,661.1c-0.1-1.3-1.1-2.4-2.4-2.7c-0.5-0.1-1-0.1-1.4,0c-0.2-2-1.6-3.7-3.7-4.2
						c-1.8-0.4-3.6,0.1-4.8,1.3c-0.4-0.4-1-0.6-1.6-0.8c-1.8-0.4-3.7,0.4-4.6,1.9L302.1,661.1z"/>
					<path id="XMLID_2994_" class="st21" d="M246.8,668.1c-0.1-1.3-1.1-2.4-2.4-2.7c-0.5-0.1-1-0.1-1.4,0c-0.2-2-1.6-3.7-3.7-4.2
						c-1.8-0.4-3.6,0.1-4.8,1.3c-0.4-0.4-1-0.6-1.6-0.8c-1.8-0.4-3.7,0.4-4.6,1.9L246.8,668.1z"/>
				</g>
			</g>
		</g>
	</g>
</g>
<g id="video">
	<g id="XMLID_3145_">
		<path id="XMLID_3162_" class="st23" d="M478.3,401.4c-0.7-3.8,1.9-7.5,5.7-8.1L680.7,358c3.8-0.7,7.5,1.8,8.2,5.7l24,133.9
			c0.7,3.8-1.9,7.5-5.7,8.1l-196.7,35.2c-3.8,0.7-7.5-1.8-8.2-5.7L478.3,401.4z"/>
		
			<rect id="XMLID_3161_" x="521.7" y="494.9" transform="matrix(-0.9843 0.1764 -0.1764 -0.9843 1281.171 878.2061)" class="st24" width="159.7" height="2.2"/>
		
			<rect id="XMLID_3160_" x="639.3" y="490.3" transform="matrix(-0.9843 0.1764 -0.1764 -0.9843 1358.9185 877.676)" class="st24" width="2.2" height="17.8"/>
		
			<rect id="XMLID_3159_" x="565.1" y="503.7" transform="matrix(-0.9843 0.1764 -0.1764 -0.9843 1213.882 917.2092)" class="st24" width="2.2" height="17.8"/>
		<path id="XMLID_3156_" class="st24" d="M585.1,400.9c-22.1,4-36.9,25.1-32.9,47.1c3.9,22,25.1,36.7,47.2,32.7
			c22.1-4,36.9-25,32.9-47.1C628.3,411.6,607.2,397,585.1,400.9z M598.4,475.4c-19.1,3.4-37.4-9.2-40.8-28.3
			c-3.4-19.1,9.3-37.3,28.5-40.8c19.1-3.4,37.4,9.2,40.8,28.3C630.3,453.7,617.5,472,598.4,475.4z"/>
		<path id="XMLID_3153_" class="st25" d="M552.9,447.9c3.9,21.6,24.7,36,46.4,32.1s36.2-24.6,32.3-46.2c-3.9-21.6-24.7-36-46.4-32.1
			C563.5,405.5,549,426.3,552.9,447.9z M556.8,447.2c-3.5-19.4,9.6-38.1,29.1-41.6c19.5-3.5,38.2,9.5,41.7,28.9
			c3.5,19.4-9.6,38.1-29.1,41.6C579,479.6,560.3,466.6,556.8,447.2z"/>
		<path id="XMLID_3152_" class="st26" d="M681.6,363.2l-196.7,35.2c-0.9,0.2-1.5,1-1.4,1.9l24,133.9c0.1,0.7,0.7,1.2,1.3,1.3
			c3.9-32.6,18.8-63.3,41.7-88.3c-3.5-22.5,11.7-43.8,34.2-47.8c9.5-1.7,18.7,0,26.7,4c14.6-6.6,30.3-11.6,47-14.6
			c9.7-1.7,19.4-2.7,28.9-3l-3.8-21.3C683.4,363.7,682.5,363.1,681.6,363.2z"/>
		<path id="XMLID_3151_" class="st27" d="M572.2,424c-0.3-1.7,0.1-3.2,1.2-4.1c1.1-0.9,2.6-1.1,4.3-0.5l3.4,1.2
			c6.4-4.4,13-8.5,20-12.2c-4.7-1.3-9.8-1.6-14.9-0.7c-15.7,2.8-26.9,16.1-27.7,31.4c4.5-4.3,9.2-8.4,14.2-12.3
			C572.4,425.1,572.2,424,572.2,424z"/>
		<path id="XMLID_3150_" class="st24" d="M615.9,438.9c2-1.6,1.6-3.7-0.8-4.5l-14.6-5.2c-2.4-0.9-6.3-2.3-8.7-3.1l-14.6-5.2
			c-2.4-0.9-4,0.5-3.6,3l2.7,15.2c0.5,2.5,1.2,6.6,1.6,9.1l2.7,15.2c0.5,2.5,2.4,3.2,4.4,1.6l11.9-10c2-1.6,5.2-4.3,7.1-6
			L615.9,438.9z"/>
		<path id="XMLID_3149_" class="st25" d="M574.9,421.6c-0.5,0.4-0.6,1.1-0.5,2.1l7.1,39.5c0.2,0.9,0.6,1.6,1.1,1.8s1.3,0,2-0.7
			l11.9-10l18.9-15.9c0.7-0.6,1.1-1.3,1-1.9c-0.1-0.6-0.7-1.1-1.6-1.4L577,421.5C576.1,421.2,575.3,421.2,574.9,421.6z"/>
		<path id="XMLID_3148_" class="st25" d="M552.4,444.5c1.3-1.3,2.5-2.6,3.8-3.9c0.1-16.9,12.3-31.9,29.6-35
			c6.2-1.1,12.3-0.6,17.8,1.3c1.6-0.8,3.2-1.6,4.9-2.4c-7.1-3.2-15.2-4.4-23.4-2.9C564.6,405.3,550.6,424.2,552.4,444.5z"/>
		<path id="XMLID_3147_" class="st28" d="M574.9,421.6c-0.5,0.4-0.6,1.1-0.5,2.1l0.2,1.2c1.3-1,2.6-1.9,3.9-2.9l-1.5-0.6
			C576.1,421.2,575.3,421.2,574.9,421.6z"/>
		
			<rect id="XMLID_3146_" x="502.4" y="388" transform="matrix(-0.9843 0.1764 -0.1764 -0.9843 1221.2681 668.7768)" class="st24" width="157" height="1.4"/>
	</g>
</g>
</svg>
